<?xml version="1.0" encoding="utf-8"?>
<!-- Generator: Adobe Illustrator 18.0.0, SVG Export Plug-In . SVG Version: 6.00 Build 0)  -->
<!DOCTYPE svg PUBLIC "-//W3C//DTD SVG 1.1//EN" "http://www.w3.org/Graphics/SVG/1.1/DTD/svg11.dtd">
<svg version="1.1" id="Layer_1" xmlns="http://www.w3.org/2000/svg" xmlns:xlink="http://www.w3.org/1999/xlink" x="0px" y="0px"
	 viewBox="0 0 525.4 179.7" enable-background="new 0 0 525.4 179.7" xml:space="preserve">
<path fill="#E0723E" d="M121.4,118h345c32.6,0,59-26.4,59-59v0c0-32.6-26.4-59-59-59l-345,0c-32.6,0-59,26.4-59,59v0
	C62.4,91.6,88.8,118,121.4,118z"/>
<rect x="188.4" y="23" fill="none" width="304" height="84"/>
<text transform="matrix(1 0 0 1 188.412 89.5991)" fill="#FFFFFF" font-family="'Lato-Semibold'" font-size="90">Search!</text>
<circle fill="#E0723E" cx="122.4" cy="59" r="43"/>
<circle fill="#BB4C33" cx="121.4" cy="59" r="59"/>
<rect x="71.5" y="31.1" transform="matrix(0.7071 0.7071 -0.7071 0.7071 93.8818 -27.5149)" fill="#BB4C33" width="17.4" height="137"/>
<rect x="24" y="106" transform="matrix(0.7071 0.7071 -0.7071 0.7071 112.5309 17.5079)" fill="#BB4C33" width="22.2" height="77.2"/>
<path fill="#FFFFFF" d="M110.8,22.8c24.2-1.1,15.2,23.5,23.7,32.3s21.1,20.9,16.1,31.3c-11.4,24.1-46.9,11.7-65-15.2
	S92.7,23.6,110.8,22.8z"/>
<circle fill="#F4B15C" cx="110.8" cy="49.4" r="13.3"/>
</svg>
