<?xml version="1.0" encoding="utf-8"?>
<!-- Generator: Adobe Illustrator 18.0.0, SVG Export Plug-In . SVG Version: 6.00 Build 0)  -->
<!DOCTYPE svg PUBLIC "-//W3C//DTD SVG 1.1//EN" "http://www.w3.org/Graphics/SVG/1.1/DTD/svg11.dtd">
<svg version="1.1" id="Layer_1" xmlns="http://www.w3.org/2000/svg" xmlns:xlink="http://www.w3.org/1999/xlink" x="0px" y="0px"
	 viewBox="0 0 1920 1080" enable-background="new 0 0 1920 1080" xml:space="preserve">
<g>
	<defs>
		<rect id="SVGID_1_" width="1920" height="1083.8"/>
	</defs>
	<clipPath id="SVGID_2_">
		<use xlink:href="#SVGID_1_"  overflow="visible"/>
	</clipPath>
	<g clip-path="url(#SVGID_2_)">
		<g>
			<rect x="-5.1" y="4.6" fill="#EEEEEE" width="1923" height="1083.8"/>
			<g>
				<defs>
					<rect id="SVGID_3_" x="459.9" y="410.4" width="1459" height="190.5"/>
				</defs>
				<clipPath id="SVGID_4_">
					<use xlink:href="#SVGID_3_"  overflow="visible"/>
				</clipPath>
				<g clip-path="url(#SVGID_4_)">
					
						<rect x="1891.4" y="352.5" transform="matrix(0.7071 0.7071 -0.7071 0.7071 824.9423 -1266.5911)" fill="#FFFFFF" stroke="#BBBCBE" stroke-miterlimit="10" width="100" height="20"/>
					
						<rect x="1891.4" y="380.8" transform="matrix(0.7071 0.7071 -0.7071 0.7071 844.9423 -1258.3068)" fill="#FFFFFF" stroke="#BBBCBE" stroke-miterlimit="10" width="100" height="20"/>
					
						<rect x="1891.4" y="409.1" transform="matrix(0.7071 0.7071 -0.7071 0.7071 864.9423 -1250.0225)" fill="#FFFFFF" stroke="#BBBCBE" stroke-miterlimit="10" width="100" height="20"/>
					
						<rect x="1891.4" y="437.4" transform="matrix(0.7071 0.7071 -0.7071 0.7071 884.9423 -1241.7383)" fill="#FFFFFF" stroke="#BBBCBE" stroke-miterlimit="10" width="100" height="20"/>
					
						<rect x="1891.4" y="465.6" transform="matrix(0.7071 0.7071 -0.7071 0.7071 904.9423 -1233.454)" fill="#FFFFFF" stroke="#BBBCBE" stroke-miterlimit="10" width="100" height="20"/>
					
						<rect x="1891.4" y="493.9" transform="matrix(0.7071 0.7071 -0.7071 0.7071 924.9423 -1225.1697)" fill="#FFFFFF" stroke="#BBBCBE" stroke-miterlimit="10" width="100" height="20"/>
					
						<rect x="1891.4" y="522.2" transform="matrix(0.7071 0.7071 -0.7071 0.7071 944.9423 -1216.8854)" fill="#FFFFFF" stroke="#BBBCBE" stroke-miterlimit="10" width="100" height="20"/>
					
						<rect x="1891.4" y="550.5" transform="matrix(0.7071 0.7071 -0.7071 0.7071 964.9423 -1208.6012)" fill="#FFFFFF" stroke="#BBBCBE" stroke-miterlimit="10" width="100" height="20"/>
					
						<rect x="1891.4" y="578.8" transform="matrix(0.7071 0.7071 -0.7071 0.7071 984.9423 -1200.3169)" fill="#FFFFFF" stroke="#BBBCBE" stroke-miterlimit="10" width="100" height="20"/>
					
						<rect x="1891.4" y="607.1" transform="matrix(0.7071 0.7071 -0.7071 0.7071 1004.9423 -1192.0326)" fill="#FFFFFF" stroke="#BBBCBE" stroke-miterlimit="10" width="100" height="20"/>
					
						<rect x="1891.4" y="635.3" transform="matrix(0.7071 0.7071 -0.7071 0.7071 1024.9423 -1183.7483)" fill="#FFFFFF" stroke="#BBBCBE" stroke-miterlimit="10" width="100" height="20"/>
					
						<rect x="1750.4" y="352.5" transform="matrix(0.7071 0.7071 -0.7071 0.7071 783.6443 -1166.889)" fill="#FFFFFF" stroke="#BBBCBE" stroke-miterlimit="10" width="100" height="20"/>
					
						<rect x="1750.4" y="380.8" transform="matrix(0.7071 0.7071 -0.7071 0.7071 803.6443 -1158.6047)" fill="#FFFFFF" stroke="#BBBCBE" stroke-miterlimit="10" width="100" height="20"/>
					
						<rect x="1750.4" y="409.1" transform="matrix(0.7071 0.7071 -0.7071 0.7071 823.6443 -1150.3204)" fill="#FFFFFF" stroke="#BBBCBE" stroke-miterlimit="10" width="100" height="20"/>
					
						<rect x="1750.4" y="437.4" transform="matrix(0.7071 0.7071 -0.7071 0.7071 843.6443 -1142.0361)" fill="#FFFFFF" stroke="#BBBCBE" stroke-miterlimit="10" width="100" height="20"/>
					
						<rect x="1750.4" y="465.6" transform="matrix(0.7071 0.7071 -0.7071 0.7071 863.6443 -1133.752)" fill="#FFFFFF" stroke="#BBBCBE" stroke-miterlimit="10" width="100" height="20"/>
					
						<rect x="1750.4" y="493.9" transform="matrix(0.7071 0.7071 -0.7071 0.7071 883.6443 -1125.4677)" fill="#FFFFFF" stroke="#BBBCBE" stroke-miterlimit="10" width="100" height="20"/>
					
						<rect x="1750.4" y="522.2" transform="matrix(0.7071 0.7071 -0.7071 0.7071 903.6443 -1117.1833)" fill="#FFFFFF" stroke="#BBBCBE" stroke-miterlimit="10" width="100" height="20"/>
					
						<rect x="1750.4" y="550.5" transform="matrix(0.7071 0.7071 -0.7071 0.7071 923.6443 -1108.899)" fill="#FFFFFF" stroke="#BBBCBE" stroke-miterlimit="10" width="100" height="20"/>
					
						<rect x="1750.4" y="578.8" transform="matrix(0.7071 0.7071 -0.7071 0.7071 943.6443 -1100.6149)" fill="#FFFFFF" stroke="#BBBCBE" stroke-miterlimit="10" width="100" height="20"/>
					
						<rect x="1750.4" y="607.1" transform="matrix(0.7071 0.7071 -0.7071 0.7071 963.6443 -1092.3306)" fill="#FFFFFF" stroke="#BBBCBE" stroke-miterlimit="10" width="100" height="20"/>
					
						<rect x="1750.4" y="635.3" transform="matrix(0.7071 0.7071 -0.7071 0.7071 983.6443 -1084.0463)" fill="#FFFFFF" stroke="#BBBCBE" stroke-miterlimit="10" width="100" height="20"/>
					
						<rect x="1820.3" y="366.6" transform="matrix(-0.7071 0.7071 -0.7071 -0.7071 3459.0422 -679.5023)" fill="#FFFFFF" stroke="#BBBCBE" stroke-miterlimit="10" width="100" height="20"/>
					
						<rect x="1820.3" y="394.9" transform="matrix(-0.7071 0.7071 -0.7071 -0.7071 3479.0422 -631.218)" fill="#FFFFFF" stroke="#BBBCBE" stroke-miterlimit="10" width="100" height="20"/>
					
						<rect x="1820.3" y="423.2" transform="matrix(-0.7071 0.7071 -0.7071 -0.7071 3499.0422 -582.9337)" fill="#FFFFFF" stroke="#BBBCBE" stroke-miterlimit="10" width="100" height="20"/>
					
						<rect x="1820.3" y="451.5" transform="matrix(-0.7071 0.7071 -0.7071 -0.7071 3519.0422 -534.6495)" fill="#FFFFFF" stroke="#BBBCBE" stroke-miterlimit="10" width="100" height="20"/>
					
						<rect x="1820.3" y="479.8" transform="matrix(-0.7071 0.7071 -0.7071 -0.7071 3539.0422 -486.3652)" fill="#FFFFFF" stroke="#BBBCBE" stroke-miterlimit="10" width="100" height="20"/>
					
						<rect x="1820.3" y="508.1" transform="matrix(-0.7071 0.7071 -0.7071 -0.7071 3559.0422 -438.0808)" fill="#FFFFFF" stroke="#BBBCBE" stroke-miterlimit="10" width="100" height="20"/>
					
						<rect x="1820.3" y="536.3" transform="matrix(-0.7071 0.7071 -0.7071 -0.7071 3579.0422 -389.7966)" fill="#FFFFFF" stroke="#BBBCBE" stroke-miterlimit="10" width="100" height="20"/>
					
						<rect x="1820.3" y="564.6" transform="matrix(-0.7071 0.7071 -0.7071 -0.7071 3599.0422 -341.5123)" fill="#FFFFFF" stroke="#BBBCBE" stroke-miterlimit="10" width="100" height="20"/>
					
						<rect x="1820.3" y="592.9" transform="matrix(-0.7071 0.7071 -0.7071 -0.7071 3619.0422 -293.2281)" fill="#FFFFFF" stroke="#BBBCBE" stroke-miterlimit="10" width="100" height="20"/>
					
						<rect x="1820.3" y="621.2" transform="matrix(-0.7071 0.7071 -0.7071 -0.7071 3639.0422 -244.9438)" fill="#FFFFFF" stroke="#BBBCBE" stroke-miterlimit="10" width="100" height="20"/>
					
						<rect x="1820.3" y="649.5" transform="matrix(-0.7071 0.7071 -0.7071 -0.7071 3659.0422 -196.6595)" fill="#FFFFFF" stroke="#BBBCBE" stroke-miterlimit="10" width="100" height="20"/>
					
						<rect x="1609.4" y="352.5" transform="matrix(0.7071 0.7071 -0.7071 0.7071 742.3464 -1067.1869)" fill="#FFFFFF" stroke="#BBBCBE" stroke-miterlimit="10" width="100" height="20"/>
					
						<rect x="1609.4" y="380.8" transform="matrix(0.7071 0.7071 -0.7071 0.7071 762.3464 -1058.9027)" fill="#FFFFFF" stroke="#BBBCBE" stroke-miterlimit="10" width="100" height="20"/>
					
						<rect x="1609.4" y="409.1" transform="matrix(0.7071 0.7071 -0.7071 0.7071 782.3464 -1050.6184)" fill="#FFFFFF" stroke="#BBBCBE" stroke-miterlimit="10" width="100" height="20"/>
					
						<rect x="1609.4" y="437.4" transform="matrix(0.7071 0.7071 -0.7071 0.7071 802.3464 -1042.3341)" fill="#FFFFFF" stroke="#BBBCBE" stroke-miterlimit="10" width="100" height="20"/>
					
						<rect x="1609.4" y="465.6" transform="matrix(0.7071 0.7071 -0.7071 0.7071 822.3464 -1034.0498)" fill="#FFFFFF" stroke="#BBBCBE" stroke-miterlimit="10" width="100" height="20"/>
					
						<rect x="1609.4" y="493.9" transform="matrix(0.7071 0.7071 -0.7071 0.7071 842.3464 -1025.7656)" fill="#FFFFFF" stroke="#BBBCBE" stroke-miterlimit="10" width="100" height="20"/>
					
						<rect x="1609.4" y="522.2" transform="matrix(0.7071 0.7071 -0.7071 0.7071 862.3463 -1017.4813)" fill="#FFFFFF" stroke="#BBBCBE" stroke-miterlimit="10" width="100" height="20"/>
					
						<rect x="1609.4" y="550.5" transform="matrix(0.7071 0.7071 -0.7071 0.7071 882.3464 -1009.197)" fill="#FFFFFF" stroke="#BBBCBE" stroke-miterlimit="10" width="100" height="20"/>
					
						<rect x="1609.4" y="578.8" transform="matrix(0.7071 0.7071 -0.7071 0.7071 902.3463 -1000.9128)" fill="#FFFFFF" stroke="#BBBCBE" stroke-miterlimit="10" width="100" height="20"/>
					
						<rect x="1609.4" y="607.1" transform="matrix(0.7071 0.7071 -0.7071 0.7071 922.3464 -992.6285)" fill="#FFFFFF" stroke="#BBBCBE" stroke-miterlimit="10" width="100" height="20"/>
					
						<rect x="1609.4" y="635.3" transform="matrix(0.7071 0.7071 -0.7071 0.7071 942.3463 -984.3442)" fill="#FFFFFF" stroke="#BBBCBE" stroke-miterlimit="10" width="100" height="20"/>
					
						<rect x="1679.3" y="366.6" transform="matrix(-0.7071 0.7071 -0.7071 -0.7071 3218.3401 -579.8002)" fill="#FFFFFF" stroke="#BBBCBE" stroke-miterlimit="10" width="100" height="20"/>
					
						<rect x="1679.3" y="394.9" transform="matrix(-0.7071 0.7071 -0.7071 -0.7071 3238.3401 -531.5159)" fill="#FFFFFF" stroke="#BBBCBE" stroke-miterlimit="10" width="100" height="20"/>
					
						<rect x="1679.3" y="423.2" transform="matrix(-0.7071 0.7071 -0.7071 -0.7071 3258.3401 -483.2317)" fill="#FFFFFF" stroke="#BBBCBE" stroke-miterlimit="10" width="100" height="20"/>
					
						<rect x="1679.3" y="451.5" transform="matrix(-0.7071 0.7071 -0.7071 -0.7071 3278.3401 -434.9474)" fill="#FFFFFF" stroke="#BBBCBE" stroke-miterlimit="10" width="100" height="20"/>
					
						<rect x="1679.3" y="479.8" transform="matrix(-0.7071 0.7071 -0.7071 -0.7071 3298.3401 -386.6631)" fill="#FFFFFF" stroke="#BBBCBE" stroke-miterlimit="10" width="100" height="20"/>
					
						<rect x="1679.3" y="508.1" transform="matrix(-0.7071 0.7071 -0.7071 -0.7071 3318.3401 -338.3788)" fill="#FFFFFF" stroke="#BBBCBE" stroke-miterlimit="10" width="100" height="20"/>
					
						<rect x="1679.3" y="536.3" transform="matrix(-0.7071 0.7071 -0.7071 -0.7071 3338.3401 -290.0946)" fill="#FFFFFF" stroke="#BBBCBE" stroke-miterlimit="10" width="100" height="20"/>
					
						<rect x="1679.3" y="564.6" transform="matrix(-0.7071 0.7071 -0.7071 -0.7071 3358.3401 -241.8103)" fill="#FFFFFF" stroke="#BBBCBE" stroke-miterlimit="10" width="100" height="20"/>
					
						<rect x="1679.3" y="592.9" transform="matrix(-0.7071 0.7071 -0.7071 -0.7071 3378.3401 -193.526)" fill="#FFFFFF" stroke="#BBBCBE" stroke-miterlimit="10" width="100" height="20"/>
					
						<rect x="1679.3" y="621.2" transform="matrix(-0.7071 0.7071 -0.7071 -0.7071 3398.3401 -145.2417)" fill="#FFFFFF" stroke="#BBBCBE" stroke-miterlimit="10" width="100" height="20"/>
					
						<rect x="1679.3" y="649.5" transform="matrix(-0.7071 0.7071 -0.7071 -0.7071 3418.3401 -96.9575)" fill="#FFFFFF" stroke="#BBBCBE" stroke-miterlimit="10" width="100" height="20"/>
					
						<rect x="1468.4" y="352.5" transform="matrix(0.7071 0.7071 -0.7071 0.7071 701.0484 -967.4849)" fill="#FFFFFF" stroke="#BBBCBE" stroke-miterlimit="10" width="100" height="20"/>
					
						<rect x="1468.4" y="380.8" transform="matrix(0.7071 0.7071 -0.7071 0.7071 721.0484 -959.2006)" fill="#FFFFFF" stroke="#BBBCBE" stroke-miterlimit="10" width="100" height="20"/>
					
						<rect x="1468.4" y="409.1" transform="matrix(0.7071 0.7071 -0.7071 0.7071 741.0484 -950.9163)" fill="#FFFFFF" stroke="#BBBCBE" stroke-miterlimit="10" width="100" height="20"/>
					
						<rect x="1468.4" y="437.4" transform="matrix(0.7071 0.7071 -0.7071 0.7071 761.0484 -942.6321)" fill="#FFFFFF" stroke="#BBBCBE" stroke-miterlimit="10" width="100" height="20"/>
					
						<rect x="1468.4" y="465.6" transform="matrix(0.7071 0.7071 -0.7071 0.7071 781.0484 -934.3478)" fill="#FFFFFF" stroke="#BBBCBE" stroke-miterlimit="10" width="100" height="20"/>
					
						<rect x="1468.4" y="493.9" transform="matrix(0.7071 0.7071 -0.7071 0.7071 801.0484 -926.0635)" fill="#FFFFFF" stroke="#BBBCBE" stroke-miterlimit="10" width="100" height="20"/>
					
						<rect x="1468.4" y="522.2" transform="matrix(0.7071 0.7071 -0.7071 0.7071 821.0484 -917.7792)" fill="#FFFFFF" stroke="#BBBCBE" stroke-miterlimit="10" width="100" height="20"/>
					
						<rect x="1468.4" y="550.5" transform="matrix(0.7071 0.7071 -0.7071 0.7071 841.0484 -909.495)" fill="#FFFFFF" stroke="#BBBCBE" stroke-miterlimit="10" width="100" height="20"/>
					
						<rect x="1468.4" y="578.8" transform="matrix(0.7071 0.7071 -0.7071 0.7071 861.0484 -901.2107)" fill="#FFFFFF" stroke="#BBBCBE" stroke-miterlimit="10" width="100" height="20"/>
					
						<rect x="1468.4" y="607.1" transform="matrix(0.7071 0.7071 -0.7071 0.7071 881.0484 -892.9264)" fill="#FFFFFF" stroke="#BBBCBE" stroke-miterlimit="10" width="100" height="20"/>
					
						<rect x="1468.4" y="635.3" transform="matrix(0.7071 0.7071 -0.7071 0.7071 901.0484 -884.6422)" fill="#FFFFFF" stroke="#BBBCBE" stroke-miterlimit="10" width="100" height="20"/>
					
						<rect x="1538.3" y="366.6" transform="matrix(-0.7071 0.7071 -0.7071 -0.7071 2977.6379 -480.0981)" fill="#FFFFFF" stroke="#BBBCBE" stroke-miterlimit="10" width="100" height="20"/>
					
						<rect x="1538.3" y="394.9" transform="matrix(-0.7071 0.7071 -0.7071 -0.7071 2997.6379 -431.8139)" fill="#FFFFFF" stroke="#BBBCBE" stroke-miterlimit="10" width="100" height="20"/>
					
						<rect x="1538.3" y="423.2" transform="matrix(-0.7071 0.7071 -0.7071 -0.7071 3017.6379 -383.5296)" fill="#FFFFFF" stroke="#BBBCBE" stroke-miterlimit="10" width="100" height="20"/>
					
						<rect x="1538.3" y="451.5" transform="matrix(-0.7071 0.7071 -0.7071 -0.7071 3037.6379 -335.2453)" fill="#FFFFFF" stroke="#BBBCBE" stroke-miterlimit="10" width="100" height="20"/>
					
						<rect x="1538.3" y="479.8" transform="matrix(-0.7071 0.7071 -0.7071 -0.7071 3057.6379 -286.9611)" fill="#FFFFFF" stroke="#BBBCBE" stroke-miterlimit="10" width="100" height="20"/>
					
						<rect x="1538.3" y="508.1" transform="matrix(-0.7071 0.7071 -0.7071 -0.7071 3077.6382 -238.6767)" fill="#FFFFFF" stroke="#BBBCBE" stroke-miterlimit="10" width="100" height="20"/>
					
						<rect x="1538.3" y="536.3" transform="matrix(-0.7071 0.7071 -0.7071 -0.7071 3097.6379 -190.3925)" fill="#FFFFFF" stroke="#BBBCBE" stroke-miterlimit="10" width="100" height="20"/>
					
						<rect x="1538.3" y="564.6" transform="matrix(-0.7071 0.7071 -0.7071 -0.7071 3117.6382 -142.1082)" fill="#FFFFFF" stroke="#BBBCBE" stroke-miterlimit="10" width="100" height="20"/>
					
						<rect x="1538.3" y="592.9" transform="matrix(-0.7071 0.7071 -0.7071 -0.7071 3137.6379 -93.824)" fill="#FFFFFF" stroke="#BBBCBE" stroke-miterlimit="10" width="100" height="20"/>
					
						<rect x="1538.3" y="621.2" transform="matrix(-0.7071 0.7071 -0.7071 -0.7071 3157.6382 -45.5397)" fill="#FFFFFF" stroke="#BBBCBE" stroke-miterlimit="10" width="100" height="20"/>
					
						<rect x="1538.3" y="649.5" transform="matrix(-0.7071 0.7071 -0.7071 -0.7071 3177.6379 2.7446)" fill="#FFFFFF" stroke="#BBBCBE" stroke-miterlimit="10" width="100" height="20"/>
					
						<rect x="1327.4" y="352.5" transform="matrix(0.7071 0.7071 -0.7071 0.7071 659.7505 -867.7828)" fill="#FFFFFF" stroke="#BBBCBE" stroke-miterlimit="10" width="100" height="20"/>
					
						<rect x="1327.4" y="380.8" transform="matrix(0.7071 0.7071 -0.7071 0.7071 679.7505 -859.4985)" fill="#FFFFFF" stroke="#BBBCBE" stroke-miterlimit="10" width="100" height="20"/>
					
						<rect x="1327.4" y="409.1" transform="matrix(0.7071 0.7071 -0.7071 0.7071 699.7505 -851.2143)" fill="#FFFFFF" stroke="#BBBCBE" stroke-miterlimit="10" width="100" height="20"/>
					
						<rect x="1327.4" y="437.4" transform="matrix(0.7071 0.7071 -0.7071 0.7071 719.7505 -842.93)" fill="#FFFFFF" stroke="#BBBCBE" stroke-miterlimit="10" width="100" height="20"/>
					
						<rect x="1327.4" y="465.6" transform="matrix(0.7071 0.7071 -0.7071 0.7071 739.7505 -834.6458)" fill="#FFFFFF" stroke="#BBBCBE" stroke-miterlimit="10" width="100" height="20"/>
					
						<rect x="1327.4" y="493.9" transform="matrix(0.7071 0.7071 -0.7071 0.7071 759.7505 -826.3615)" fill="#FFFFFF" stroke="#BBBCBE" stroke-miterlimit="10" width="100" height="20"/>
					
						<rect x="1327.4" y="522.2" transform="matrix(0.7071 0.7071 -0.7071 0.7071 779.7504 -818.0772)" fill="#FFFFFF" stroke="#BBBCBE" stroke-miterlimit="10" width="100" height="20"/>
					
						<rect x="1327.4" y="550.5" transform="matrix(0.7071 0.7071 -0.7071 0.7071 799.7505 -809.7929)" fill="#FFFFFF" stroke="#BBBCBE" stroke-miterlimit="10" width="100" height="20"/>
					
						<rect x="1327.4" y="578.8" transform="matrix(0.7071 0.7071 -0.7071 0.7071 819.7504 -801.5087)" fill="#FFFFFF" stroke="#BBBCBE" stroke-miterlimit="10" width="100" height="20"/>
					
						<rect x="1327.4" y="607.1" transform="matrix(0.7071 0.7071 -0.7071 0.7071 839.7505 -793.2244)" fill="#FFFFFF" stroke="#BBBCBE" stroke-miterlimit="10" width="100" height="20"/>
					
						<rect x="1327.4" y="635.3" transform="matrix(0.7071 0.7071 -0.7071 0.7071 859.7504 -784.9401)" fill="#FFFFFF" stroke="#BBBCBE" stroke-miterlimit="10" width="100" height="20"/>
					
						<rect x="1397.3" y="366.6" transform="matrix(-0.7071 0.7071 -0.7071 -0.7071 2736.936 -380.3961)" fill="#FFFFFF" stroke="#BBBCBE" stroke-miterlimit="10" width="100" height="20"/>
					
						<rect x="1397.3" y="394.9" transform="matrix(-0.7071 0.7071 -0.7071 -0.7071 2756.936 -332.1118)" fill="#FFFFFF" stroke="#BBBCBE" stroke-miterlimit="10" width="100" height="20"/>
					
						<rect x="1397.3" y="423.2" transform="matrix(-0.7071 0.7071 -0.7071 -0.7071 2776.936 -283.8275)" fill="#FFFFFF" stroke="#BBBCBE" stroke-miterlimit="10" width="100" height="20"/>
					
						<rect x="1397.3" y="451.5" transform="matrix(-0.7071 0.7071 -0.7071 -0.7071 2796.936 -235.5433)" fill="#FFFFFF" stroke="#BBBCBE" stroke-miterlimit="10" width="100" height="20"/>
					
						<rect x="1397.3" y="479.8" transform="matrix(-0.7071 0.7071 -0.7071 -0.7071 2816.936 -187.259)" fill="#FFFFFF" stroke="#BBBCBE" stroke-miterlimit="10" width="100" height="20"/>
					
						<rect x="1397.3" y="508.1" transform="matrix(-0.7071 0.7071 -0.7071 -0.7071 2836.936 -138.9747)" fill="#FFFFFF" stroke="#BBBCBE" stroke-miterlimit="10" width="100" height="20"/>
					
						<rect x="1397.3" y="536.3" transform="matrix(-0.7071 0.7071 -0.7071 -0.7071 2856.936 -90.6905)" fill="#FFFFFF" stroke="#BBBCBE" stroke-miterlimit="10" width="100" height="20"/>
					
						<rect x="1397.3" y="564.6" transform="matrix(-0.7071 0.7071 -0.7071 -0.7071 2876.936 -42.4061)" fill="#FFFFFF" stroke="#BBBCBE" stroke-miterlimit="10" width="100" height="20"/>
					
						<rect x="1397.3" y="592.9" transform="matrix(-0.7071 0.7071 -0.7071 -0.7071 2896.936 5.8781)" fill="#FFFFFF" stroke="#BBBCBE" stroke-miterlimit="10" width="100" height="20"/>
					
						<rect x="1397.3" y="621.2" transform="matrix(-0.7071 0.7071 -0.7071 -0.7071 2916.936 54.1624)" fill="#FFFFFF" stroke="#BBBCBE" stroke-miterlimit="10" width="100" height="20"/>
					
						<rect x="1397.3" y="649.5" transform="matrix(-0.7071 0.7071 -0.7071 -0.7071 2936.936 102.4466)" fill="#FFFFFF" stroke="#BBBCBE" stroke-miterlimit="10" width="100" height="20"/>
					
						<rect x="1186.4" y="352.5" transform="matrix(0.7071 0.7071 -0.7071 0.7071 618.4525 -768.0807)" fill="#FFFFFF" stroke="#BBBCBE" stroke-miterlimit="10" width="100" height="20"/>
					
						<rect x="1186.4" y="380.8" transform="matrix(0.7071 0.7071 -0.7071 0.7071 638.4525 -759.7965)" fill="#FFFFFF" stroke="#BBBCBE" stroke-miterlimit="10" width="100" height="20"/>
					
						<rect x="1186.4" y="409.1" transform="matrix(0.7071 0.7071 -0.7071 0.7071 658.4525 -751.5122)" fill="#FFFFFF" stroke="#BBBCBE" stroke-miterlimit="10" width="100" height="20"/>
					
						<rect x="1186.4" y="437.4" transform="matrix(0.7071 0.7071 -0.7071 0.7071 678.4525 -743.2279)" fill="#FFFFFF" stroke="#BBBCBE" stroke-miterlimit="10" width="100" height="20"/>
					
						<rect x="1186.4" y="465.6" transform="matrix(0.7071 0.7071 -0.7071 0.7071 698.4525 -734.9437)" fill="#FFFFFF" stroke="#BBBCBE" stroke-miterlimit="10" width="100" height="20"/>
					
						<rect x="1186.4" y="493.9" transform="matrix(0.7071 0.7071 -0.7071 0.7071 718.4525 -726.6594)" fill="#FFFFFF" stroke="#BBBCBE" stroke-miterlimit="10" width="100" height="20"/>
					
						<rect x="1186.4" y="522.2" transform="matrix(0.7071 0.7071 -0.7071 0.7071 738.4525 -718.3751)" fill="#FFFFFF" stroke="#BBBCBE" stroke-miterlimit="10" width="100" height="20"/>
					
						<rect x="1186.4" y="550.5" transform="matrix(0.7071 0.7071 -0.7071 0.7071 758.4525 -710.0908)" fill="#FFFFFF" stroke="#BBBCBE" stroke-miterlimit="10" width="100" height="20"/>
					
						<rect x="1186.4" y="578.8" transform="matrix(0.7071 0.7071 -0.7071 0.7071 778.4525 -701.8066)" fill="#FFFFFF" stroke="#BBBCBE" stroke-miterlimit="10" width="100" height="20"/>
					
						<rect x="1186.4" y="607.1" transform="matrix(0.7071 0.7071 -0.7071 0.7071 798.4525 -693.5223)" fill="#FFFFFF" stroke="#BBBCBE" stroke-miterlimit="10" width="100" height="20"/>
					
						<rect x="1186.4" y="635.3" transform="matrix(0.7071 0.7071 -0.7071 0.7071 818.4525 -685.238)" fill="#FFFFFF" stroke="#BBBCBE" stroke-miterlimit="10" width="100" height="20"/>
					
						<rect x="1256.3" y="366.6" transform="matrix(-0.7071 0.7071 -0.7071 -0.7071 2496.2339 -280.694)" fill="#FFFFFF" stroke="#BBBCBE" stroke-miterlimit="10" width="100" height="20"/>
					
						<rect x="1256.3" y="394.9" transform="matrix(-0.7071 0.7071 -0.7071 -0.7071 2516.2339 -232.4098)" fill="#FFFFFF" stroke="#BBBCBE" stroke-miterlimit="10" width="100" height="20"/>
					
						<rect x="1256.3" y="423.2" transform="matrix(-0.7071 0.7071 -0.7071 -0.7071 2536.2339 -184.1255)" fill="#FFFFFF" stroke="#BBBCBE" stroke-miterlimit="10" width="100" height="20"/>
					
						<rect x="1256.3" y="451.5" transform="matrix(-0.7071 0.7071 -0.7071 -0.7071 2556.2339 -135.8412)" fill="#FFFFFF" stroke="#BBBCBE" stroke-miterlimit="10" width="100" height="20"/>
					
						<rect x="1256.3" y="479.8" transform="matrix(-0.7071 0.7071 -0.7071 -0.7071 2576.2339 -87.557)" fill="#FFFFFF" stroke="#BBBCBE" stroke-miterlimit="10" width="100" height="20"/>
					
						<rect x="1256.3" y="508.1" transform="matrix(-0.7071 0.7071 -0.7071 -0.7071 2596.2339 -39.2726)" fill="#FFFFFF" stroke="#BBBCBE" stroke-miterlimit="10" width="100" height="20"/>
					
						<rect x="1256.3" y="536.3" transform="matrix(-0.7071 0.7071 -0.7071 -0.7071 2616.2339 9.0116)" fill="#FFFFFF" stroke="#BBBCBE" stroke-miterlimit="10" width="100" height="20"/>
					
						<rect x="1256.3" y="564.6" transform="matrix(-0.7071 0.7071 -0.7071 -0.7071 2636.2339 57.2959)" fill="#FFFFFF" stroke="#BBBCBE" stroke-miterlimit="10" width="100" height="20"/>
					
						<rect x="1256.3" y="592.9" transform="matrix(-0.7071 0.7071 -0.7071 -0.7071 2656.2339 105.5801)" fill="#FFFFFF" stroke="#BBBCBE" stroke-miterlimit="10" width="100" height="20"/>
					
						<rect x="1256.3" y="621.2" transform="matrix(-0.7071 0.7071 -0.7071 -0.7071 2676.2339 153.8645)" fill="#FFFFFF" stroke="#BBBCBE" stroke-miterlimit="10" width="100" height="20"/>
					
						<rect x="1256.3" y="649.5" transform="matrix(-0.7071 0.7071 -0.7071 -0.7071 2696.2339 202.1487)" fill="#FFFFFF" stroke="#BBBCBE" stroke-miterlimit="10" width="100" height="20"/>
					
						<rect x="1045.4" y="352.5" transform="matrix(0.7071 0.7071 -0.7071 0.7071 577.1546 -668.3787)" fill="#FFFFFF" stroke="#BBBCBE" stroke-miterlimit="10" width="100" height="20"/>
					
						<rect x="1045.4" y="380.8" transform="matrix(0.7071 0.7071 -0.7071 0.7071 597.1546 -660.0944)" fill="#FFFFFF" stroke="#BBBCBE" stroke-miterlimit="10" width="100" height="20"/>
					
						<rect x="1045.4" y="409.1" transform="matrix(0.7071 0.7071 -0.7071 0.7071 617.1546 -651.8101)" fill="#FFFFFF" stroke="#BBBCBE" stroke-miterlimit="10" width="100" height="20"/>
					
						<rect x="1045.4" y="437.4" transform="matrix(0.7071 0.7071 -0.7071 0.7071 637.1546 -643.5259)" fill="#FFFFFF" stroke="#BBBCBE" stroke-miterlimit="10" width="100" height="20"/>
					
						<rect x="1045.4" y="465.6" transform="matrix(0.7071 0.7071 -0.7071 0.7071 657.1546 -635.2416)" fill="#FFFFFF" stroke="#BBBCBE" stroke-miterlimit="10" width="100" height="20"/>
					
						<rect x="1045.4" y="493.9" transform="matrix(0.7071 0.7071 -0.7071 0.7071 677.1546 -626.9573)" fill="#FFFFFF" stroke="#BBBCBE" stroke-miterlimit="10" width="100" height="20"/>
					
						<rect x="1045.4" y="522.2" transform="matrix(0.7071 0.7071 -0.7071 0.7071 697.1545 -618.6731)" fill="#FFFFFF" stroke="#BBBCBE" stroke-miterlimit="10" width="100" height="20"/>
					
						<rect x="1045.4" y="550.5" transform="matrix(0.7071 0.7071 -0.7071 0.7071 717.1546 -610.3888)" fill="#FFFFFF" stroke="#BBBCBE" stroke-miterlimit="10" width="100" height="20"/>
					
						<rect x="1045.4" y="578.8" transform="matrix(0.7071 0.7071 -0.7071 0.7071 737.1545 -602.1046)" fill="#FFFFFF" stroke="#BBBCBE" stroke-miterlimit="10" width="100" height="20"/>
					
						<rect x="1045.4" y="607.1" transform="matrix(0.7071 0.7071 -0.7071 0.7071 757.1546 -593.8203)" fill="#FFFFFF" stroke="#BBBCBE" stroke-miterlimit="10" width="100" height="20"/>
					
						<rect x="1045.4" y="635.3" transform="matrix(0.7071 0.7071 -0.7071 0.7071 777.1545 -585.536)" fill="#FFFFFF" stroke="#BBBCBE" stroke-miterlimit="10" width="100" height="20"/>
					
						<rect x="1115.3" y="366.6" transform="matrix(-0.7071 0.7071 -0.7071 -0.7071 2255.532 -180.992)" fill="#FFFFFF" stroke="#BBBCBE" stroke-miterlimit="10" width="100" height="20"/>
					
						<rect x="1115.3" y="394.9" transform="matrix(-0.7071 0.7071 -0.7071 -0.7071 2275.532 -132.7077)" fill="#FFFFFF" stroke="#BBBCBE" stroke-miterlimit="10" width="100" height="20"/>
					
						<rect x="1115.3" y="423.2" transform="matrix(-0.7071 0.7071 -0.7071 -0.7071 2295.532 -84.4234)" fill="#FFFFFF" stroke="#BBBCBE" stroke-miterlimit="10" width="100" height="20"/>
					
						<rect x="1115.3" y="451.5" transform="matrix(-0.7071 0.7071 -0.7071 -0.7071 2315.532 -36.1392)" fill="#FFFFFF" stroke="#BBBCBE" stroke-miterlimit="10" width="100" height="20"/>
					
						<rect x="1115.3" y="479.8" transform="matrix(-0.7071 0.7071 -0.7071 -0.7071 2335.532 12.1451)" fill="#FFFFFF" stroke="#BBBCBE" stroke-miterlimit="10" width="100" height="20"/>
					
						<rect x="1115.3" y="508.1" transform="matrix(-0.7071 0.7071 -0.7071 -0.7071 2355.532 60.4294)" fill="#FFFFFF" stroke="#BBBCBE" stroke-miterlimit="10" width="100" height="20"/>
					
						<rect x="1115.3" y="536.3" transform="matrix(-0.7071 0.7071 -0.7071 -0.7071 2375.532 108.7136)" fill="#FFFFFF" stroke="#BBBCBE" stroke-miterlimit="10" width="100" height="20"/>
					
						<rect x="1115.3" y="564.6" transform="matrix(-0.7071 0.7071 -0.7071 -0.7071 2395.532 156.998)" fill="#FFFFFF" stroke="#BBBCBE" stroke-miterlimit="10" width="100" height="20"/>
					
						<rect x="1115.3" y="592.9" transform="matrix(-0.7071 0.7071 -0.7071 -0.7071 2415.532 205.2822)" fill="#FFFFFF" stroke="#BBBCBE" stroke-miterlimit="10" width="100" height="20"/>
					
						<rect x="1115.3" y="621.2" transform="matrix(-0.7071 0.7071 -0.7071 -0.7071 2435.532 253.5665)" fill="#FFFFFF" stroke="#BBBCBE" stroke-miterlimit="10" width="100" height="20"/>
					
						<rect x="1115.3" y="649.5" transform="matrix(-0.7071 0.7071 -0.7071 -0.7071 2455.532 301.8507)" fill="#FFFFFF" stroke="#BBBCBE" stroke-miterlimit="10" width="100" height="20"/>
					
						<rect x="904.4" y="352.5" transform="matrix(0.7071 0.7071 -0.7071 0.7071 535.8566 -568.6767)" fill="#FFFFFF" stroke="#BBBCBE" stroke-miterlimit="10" width="100" height="20"/>
					
						<rect x="904.4" y="380.8" transform="matrix(0.7071 0.7071 -0.7071 0.7071 555.8566 -560.3924)" fill="#FFFFFF" stroke="#BBBCBE" stroke-miterlimit="10" width="100" height="20"/>
					
						<rect x="904.4" y="409.1" transform="matrix(0.7071 0.7071 -0.7071 0.7071 575.8566 -552.1082)" fill="#FFFFFF" stroke="#BBBCBE" stroke-miterlimit="10" width="100" height="20"/>
					
						<rect x="904.4" y="437.4" transform="matrix(0.7071 0.7071 -0.7071 0.7071 595.8566 -543.8239)" fill="#FFFFFF" stroke="#BBBCBE" stroke-miterlimit="10" width="100" height="20"/>
					
						<rect x="904.4" y="465.6" transform="matrix(0.7071 0.7071 -0.7071 0.7071 615.8566 -535.5396)" fill="#FFFFFF" stroke="#BBBCBE" stroke-miterlimit="10" width="100" height="20"/>
					
						<rect x="904.4" y="493.9" transform="matrix(0.7071 0.7071 -0.7071 0.7071 635.8566 -527.2553)" fill="#FFFFFF" stroke="#BBBCBE" stroke-miterlimit="10" width="100" height="20"/>
					
						<rect x="904.4" y="522.2" transform="matrix(0.7071 0.7071 -0.7071 0.7071 655.8566 -518.9711)" fill="#FFFFFF" stroke="#BBBCBE" stroke-miterlimit="10" width="100" height="20"/>
					
						<rect x="904.4" y="550.5" transform="matrix(0.7071 0.7071 -0.7071 0.7071 675.8566 -510.6868)" fill="#FFFFFF" stroke="#BBBCBE" stroke-miterlimit="10" width="100" height="20"/>
					
						<rect x="904.4" y="578.8" transform="matrix(0.7071 0.7071 -0.7071 0.7071 695.8566 -502.4025)" fill="#FFFFFF" stroke="#BBBCBE" stroke-miterlimit="10" width="100" height="20"/>
					
						<rect x="904.4" y="607.1" transform="matrix(0.7071 0.7071 -0.7071 0.7071 715.8566 -494.1182)" fill="#FFFFFF" stroke="#BBBCBE" stroke-miterlimit="10" width="100" height="20"/>
					
						<rect x="904.4" y="635.3" transform="matrix(0.7071 0.7071 -0.7071 0.7071 735.8566 -485.834)" fill="#FFFFFF" stroke="#BBBCBE" stroke-miterlimit="10" width="100" height="20"/>
					
						<rect x="974.3" y="366.6" transform="matrix(-0.7071 0.7071 -0.7071 -0.7071 2014.8298 -81.2899)" fill="#FFFFFF" stroke="#BBBCBE" stroke-miterlimit="10" width="100" height="20"/>
					
						<rect x="974.3" y="394.9" transform="matrix(-0.7071 0.7071 -0.7071 -0.7071 2034.8298 -33.0057)" fill="#FFFFFF" stroke="#BBBCBE" stroke-miterlimit="10" width="100" height="20"/>
					
						<rect x="974.3" y="423.2" transform="matrix(-0.7071 0.7071 -0.7071 -0.7071 2054.8298 15.2786)" fill="#FFFFFF" stroke="#BBBCBE" stroke-miterlimit="10" width="100" height="20"/>
					
						<rect x="974.3" y="451.5" transform="matrix(-0.7071 0.7071 -0.7071 -0.7071 2074.8298 63.5629)" fill="#FFFFFF" stroke="#BBBCBE" stroke-miterlimit="10" width="100" height="20"/>
					
						<rect x="974.3" y="479.8" transform="matrix(-0.7071 0.7071 -0.7071 -0.7071 2094.8298 111.8472)" fill="#FFFFFF" stroke="#BBBCBE" stroke-miterlimit="10" width="100" height="20"/>
					
						<rect x="974.3" y="508.1" transform="matrix(-0.7071 0.7071 -0.7071 -0.7071 2114.8298 160.1315)" fill="#FFFFFF" stroke="#BBBCBE" stroke-miterlimit="10" width="100" height="20"/>
					
						<rect x="974.3" y="536.3" transform="matrix(-0.7071 0.7071 -0.7071 -0.7071 2134.8298 208.4157)" fill="#FFFFFF" stroke="#BBBCBE" stroke-miterlimit="10" width="100" height="20"/>
					
						<rect x="974.3" y="564.6" transform="matrix(-0.7071 0.7071 -0.7071 -0.7071 2154.8298 256.7)" fill="#FFFFFF" stroke="#BBBCBE" stroke-miterlimit="10" width="100" height="20"/>
					
						<rect x="974.3" y="592.9" transform="matrix(-0.7071 0.7071 -0.7071 -0.7071 2174.8298 304.9843)" fill="#FFFFFF" stroke="#BBBCBE" stroke-miterlimit="10" width="100" height="20"/>
					
						<rect x="974.3" y="621.2" transform="matrix(-0.7071 0.7071 -0.7071 -0.7071 2194.8298 353.2686)" fill="#FFFFFF" stroke="#BBBCBE" stroke-miterlimit="10" width="100" height="20"/>
					
						<rect x="974.3" y="649.5" transform="matrix(-0.7071 0.7071 -0.7071 -0.7071 2214.8298 401.5528)" fill="#FFFFFF" stroke="#BBBCBE" stroke-miterlimit="10" width="100" height="20"/>
					
						<rect x="763.4" y="352.5" transform="matrix(0.7071 0.7071 -0.7071 0.7071 494.5587 -468.9746)" fill="#FFFFFF" stroke="#BBBCBE" stroke-miterlimit="10" width="100" height="20"/>
					
						<rect x="763.4" y="380.8" transform="matrix(0.7071 0.7071 -0.7071 0.7071 514.5587 -460.6903)" fill="#FFFFFF" stroke="#BBBCBE" stroke-miterlimit="10" width="100" height="20"/>
					
						<rect x="763.4" y="409.1" transform="matrix(0.7071 0.7071 -0.7071 0.7071 534.5587 -452.4061)" fill="#FFFFFF" stroke="#BBBCBE" stroke-miterlimit="10" width="100" height="20"/>
					
						<rect x="763.4" y="437.4" transform="matrix(0.7071 0.7071 -0.7071 0.7071 554.5587 -444.1218)" fill="#FFFFFF" stroke="#BBBCBE" stroke-miterlimit="10" width="100" height="20"/>
					
						<rect x="763.4" y="465.6" transform="matrix(0.7071 0.7071 -0.7071 0.7071 574.5587 -435.8375)" fill="#FFFFFF" stroke="#BBBCBE" stroke-miterlimit="10" width="100" height="20"/>
					
						<rect x="763.4" y="493.9" transform="matrix(0.7071 0.7071 -0.7071 0.7071 594.5587 -427.5533)" fill="#FFFFFF" stroke="#BBBCBE" stroke-miterlimit="10" width="100" height="20"/>
					
						<rect x="763.4" y="522.2" transform="matrix(0.7071 0.7071 -0.7071 0.7071 614.5587 -419.269)" fill="#FFFFFF" stroke="#BBBCBE" stroke-miterlimit="10" width="100" height="20"/>
					
						<rect x="763.4" y="550.5" transform="matrix(0.7071 0.7071 -0.7071 0.7071 634.5587 -410.9847)" fill="#FFFFFF" stroke="#BBBCBE" stroke-miterlimit="10" width="100" height="20"/>
					
						<rect x="763.4" y="578.8" transform="matrix(0.7071 0.7071 -0.7071 0.7071 654.5587 -402.7004)" fill="#FFFFFF" stroke="#BBBCBE" stroke-miterlimit="10" width="100" height="20"/>
					
						<rect x="763.4" y="607.1" transform="matrix(0.7071 0.7071 -0.7071 0.7071 674.5587 -394.4162)" fill="#FFFFFF" stroke="#BBBCBE" stroke-miterlimit="10" width="100" height="20"/>
					
						<rect x="763.4" y="635.3" transform="matrix(0.7071 0.7071 -0.7071 0.7071 694.5587 -386.1319)" fill="#FFFFFF" stroke="#BBBCBE" stroke-miterlimit="10" width="100" height="20"/>
					
						<rect x="833.3" y="366.6" transform="matrix(-0.7071 0.7071 -0.7071 -0.7071 1774.1279 18.4121)" fill="#FFFFFF" stroke="#BBBCBE" stroke-miterlimit="10" width="100" height="20"/>
					
						<rect x="833.3" y="394.9" transform="matrix(-0.7071 0.7071 -0.7071 -0.7071 1794.1279 66.6964)" fill="#FFFFFF" stroke="#BBBCBE" stroke-miterlimit="10" width="100" height="20"/>
					
						<rect x="833.3" y="423.2" transform="matrix(-0.7071 0.7071 -0.7071 -0.7071 1814.1279 114.9806)" fill="#FFFFFF" stroke="#BBBCBE" stroke-miterlimit="10" width="100" height="20"/>
					
						<rect x="833.3" y="451.5" transform="matrix(-0.7071 0.7071 -0.7071 -0.7071 1834.1279 163.2649)" fill="#FFFFFF" stroke="#BBBCBE" stroke-miterlimit="10" width="100" height="20"/>
					
						<rect x="833.3" y="479.8" transform="matrix(-0.7071 0.7071 -0.7071 -0.7071 1854.1279 211.5492)" fill="#FFFFFF" stroke="#BBBCBE" stroke-miterlimit="10" width="100" height="20"/>
					
						<rect x="833.3" y="508.1" transform="matrix(-0.7071 0.7071 -0.7071 -0.7071 1874.1279 259.8335)" fill="#FFFFFF" stroke="#BBBCBE" stroke-miterlimit="10" width="100" height="20"/>
					
						<rect x="833.3" y="536.3" transform="matrix(-0.7071 0.7071 -0.7071 -0.7071 1894.1279 308.1177)" fill="#FFFFFF" stroke="#BBBCBE" stroke-miterlimit="10" width="100" height="20"/>
					
						<rect x="833.3" y="564.6" transform="matrix(-0.7071 0.7071 -0.7071 -0.7071 1914.1279 356.402)" fill="#FFFFFF" stroke="#BBBCBE" stroke-miterlimit="10" width="100" height="20"/>
					
						<rect x="833.3" y="592.9" transform="matrix(-0.7071 0.7071 -0.7071 -0.7071 1934.1279 404.6862)" fill="#FFFFFF" stroke="#BBBCBE" stroke-miterlimit="10" width="100" height="20"/>
					
						<rect x="833.3" y="621.2" transform="matrix(-0.7071 0.7071 -0.7071 -0.7071 1954.1279 452.9706)" fill="#FFFFFF" stroke="#BBBCBE" stroke-miterlimit="10" width="100" height="20"/>
					
						<rect x="833.3" y="649.5" transform="matrix(-0.7071 0.7071 -0.7071 -0.7071 1974.1279 501.2548)" fill="#FFFFFF" stroke="#BBBCBE" stroke-miterlimit="10" width="100" height="20"/>
					
						<rect x="622.4" y="352.5" transform="matrix(0.7071 0.7071 -0.7071 0.7071 453.2607 -369.2726)" fill="#FFFFFF" stroke="#BBBCBE" stroke-miterlimit="10" width="100" height="20"/>
					
						<rect x="622.4" y="380.8" transform="matrix(0.7071 0.7071 -0.7071 0.7071 473.2607 -360.9883)" fill="#FFFFFF" stroke="#BBBCBE" stroke-miterlimit="10" width="100" height="20"/>
					
						<rect x="622.4" y="409.1" transform="matrix(0.7071 0.7071 -0.7071 0.7071 493.2607 -352.704)" fill="#FFFFFF" stroke="#BBBCBE" stroke-miterlimit="10" width="100" height="20"/>
					
						<rect x="622.4" y="437.4" transform="matrix(0.7071 0.7071 -0.7071 0.7071 513.2607 -344.4197)" fill="#FFFFFF" stroke="#BBBCBE" stroke-miterlimit="10" width="100" height="20"/>
					
						<rect x="622.4" y="465.6" transform="matrix(0.7071 0.7071 -0.7071 0.7071 533.2607 -336.1355)" fill="#FFFFFF" stroke="#BBBCBE" stroke-miterlimit="10" width="100" height="20"/>
					
						<rect x="622.4" y="493.9" transform="matrix(0.7071 0.7071 -0.7071 0.7071 553.2607 -327.8512)" fill="#FFFFFF" stroke="#BBBCBE" stroke-miterlimit="10" width="100" height="20"/>
					
						<rect x="622.4" y="522.2" transform="matrix(0.7071 0.7071 -0.7071 0.7071 573.2607 -319.5669)" fill="#FFFFFF" stroke="#BBBCBE" stroke-miterlimit="10" width="100" height="20"/>
					
						<rect x="622.4" y="550.5" transform="matrix(0.7071 0.7071 -0.7071 0.7071 593.2607 -311.2827)" fill="#FFFFFF" stroke="#BBBCBE" stroke-miterlimit="10" width="100" height="20"/>
					
						<rect x="622.4" y="578.8" transform="matrix(0.7071 0.7071 -0.7071 0.7071 613.2607 -302.9984)" fill="#FFFFFF" stroke="#BBBCBE" stroke-miterlimit="10" width="100" height="20"/>
					
						<rect x="622.4" y="607.1" transform="matrix(0.7071 0.7071 -0.7071 0.7071 633.2607 -294.7141)" fill="#FFFFFF" stroke="#BBBCBE" stroke-miterlimit="10" width="100" height="20"/>
					
						<rect x="622.4" y="635.3" transform="matrix(0.7071 0.7071 -0.7071 0.7071 653.2607 -286.4298)" fill="#FFFFFF" stroke="#BBBCBE" stroke-miterlimit="10" width="100" height="20"/>
					
						<rect x="692.3" y="366.6" transform="matrix(-0.7071 0.7071 -0.7071 -0.7071 1533.4258 118.1141)" fill="#FFFFFF" stroke="#BBBCBE" stroke-miterlimit="10" width="100" height="20"/>
					
						<rect x="692.3" y="394.9" transform="matrix(-0.7071 0.7071 -0.7071 -0.7071 1553.4258 166.3984)" fill="#FFFFFF" stroke="#BBBCBE" stroke-miterlimit="10" width="100" height="20"/>
					
						<rect x="692.3" y="423.2" transform="matrix(-0.7071 0.7071 -0.7071 -0.7071 1573.4258 214.6827)" fill="#FFFFFF" stroke="#BBBCBE" stroke-miterlimit="10" width="100" height="20"/>
					
						<rect x="692.3" y="451.5" transform="matrix(-0.7071 0.7071 -0.7071 -0.7071 1593.4258 262.9669)" fill="#FFFFFF" stroke="#BBBCBE" stroke-miterlimit="10" width="100" height="20"/>
					
						<rect x="692.3" y="479.8" transform="matrix(-0.7071 0.7071 -0.7071 -0.7071 1613.4258 311.2512)" fill="#FFFFFF" stroke="#BBBCBE" stroke-miterlimit="10" width="100" height="20"/>
					
						<rect x="692.3" y="508.1" transform="matrix(-0.7071 0.7071 -0.7071 -0.7071 1633.4258 359.5356)" fill="#FFFFFF" stroke="#BBBCBE" stroke-miterlimit="10" width="100" height="20"/>
					
						<rect x="692.3" y="536.3" transform="matrix(-0.7071 0.7071 -0.7071 -0.7071 1653.4258 407.8198)" fill="#FFFFFF" stroke="#BBBCBE" stroke-miterlimit="10" width="100" height="20"/>
					
						<rect x="692.3" y="564.6" transform="matrix(-0.7071 0.7071 -0.7071 -0.7071 1673.4258 456.1041)" fill="#FFFFFF" stroke="#BBBCBE" stroke-miterlimit="10" width="100" height="20"/>
					
						<rect x="692.3" y="592.9" transform="matrix(-0.7071 0.7071 -0.7071 -0.7071 1693.4258 504.3883)" fill="#FFFFFF" stroke="#BBBCBE" stroke-miterlimit="10" width="100" height="20"/>
					
						<rect x="692.3" y="621.2" transform="matrix(-0.7071 0.7071 -0.7071 -0.7071 1713.4258 552.6726)" fill="#FFFFFF" stroke="#BBBCBE" stroke-miterlimit="10" width="100" height="20"/>
					
						<rect x="692.3" y="649.5" transform="matrix(-0.7071 0.7071 -0.7071 -0.7071 1733.4258 600.9568)" fill="#FFFFFF" stroke="#BBBCBE" stroke-miterlimit="10" width="100" height="20"/>
					
						<rect x="481.4" y="352.5" transform="matrix(0.7071 0.7071 -0.7071 0.7071 411.9628 -269.5705)" fill="#FFFFFF" stroke="#BBBCBE" stroke-miterlimit="10" width="100" height="20"/>
					
						<rect x="481.4" y="380.8" transform="matrix(0.7071 0.7071 -0.7071 0.7071 431.9628 -261.2862)" fill="#FFFFFF" stroke="#BBBCBE" stroke-miterlimit="10" width="100" height="20"/>
					
						<rect x="481.4" y="409.1" transform="matrix(0.7071 0.7071 -0.7071 0.7071 451.9628 -253.002)" fill="#FFFFFF" stroke="#BBBCBE" stroke-miterlimit="10" width="100" height="20"/>
					
						<rect x="481.4" y="437.4" transform="matrix(0.7071 0.7071 -0.7071 0.7071 471.9628 -244.7177)" fill="#FFFFFF" stroke="#BBBCBE" stroke-miterlimit="10" width="100" height="20"/>
					
						<rect x="481.4" y="465.6" transform="matrix(0.7071 0.7071 -0.7071 0.7071 491.9628 -236.4334)" fill="#FFFFFF" stroke="#BBBCBE" stroke-miterlimit="10" width="100" height="20"/>
					
						<rect x="481.4" y="493.9" transform="matrix(0.7071 0.7071 -0.7071 0.7071 511.9628 -228.1491)" fill="#FFFFFF" stroke="#BBBCBE" stroke-miterlimit="10" width="100" height="20"/>
					
						<rect x="481.4" y="522.2" transform="matrix(0.7071 0.7071 -0.7071 0.7071 531.9628 -219.8649)" fill="#FFFFFF" stroke="#BBBCBE" stroke-miterlimit="10" width="100" height="20"/>
					
						<rect x="481.4" y="550.5" transform="matrix(0.7071 0.7071 -0.7071 0.7071 551.9628 -211.5806)" fill="#FFFFFF" stroke="#BBBCBE" stroke-miterlimit="10" width="100" height="20"/>
					
						<rect x="481.4" y="578.8" transform="matrix(0.7071 0.7071 -0.7071 0.7071 571.9628 -203.2963)" fill="#FFFFFF" stroke="#BBBCBE" stroke-miterlimit="10" width="100" height="20"/>
					
						<rect x="481.4" y="607.1" transform="matrix(0.7071 0.7071 -0.7071 0.7071 591.9628 -195.0121)" fill="#FFFFFF" stroke="#BBBCBE" stroke-miterlimit="10" width="100" height="20"/>
					
						<rect x="481.4" y="635.3" transform="matrix(0.7071 0.7071 -0.7071 0.7071 611.9628 -186.7278)" fill="#FFFFFF" stroke="#BBBCBE" stroke-miterlimit="10" width="100" height="20"/>
					
						<rect x="551.3" y="366.6" transform="matrix(-0.7071 0.7071 -0.7071 -0.7071 1292.7238 217.8162)" fill="#FFFFFF" stroke="#BBBCBE" stroke-miterlimit="10" width="100" height="20"/>
					
						<rect x="551.3" y="394.9" transform="matrix(-0.7071 0.7071 -0.7071 -0.7071 1312.7238 266.1005)" fill="#FFFFFF" stroke="#BBBCBE" stroke-miterlimit="10" width="100" height="20"/>
					
						<rect x="551.3" y="423.2" transform="matrix(-0.7071 0.7071 -0.7071 -0.7071 1332.7238 314.3847)" fill="#FFFFFF" stroke="#BBBCBE" stroke-miterlimit="10" width="100" height="20"/>
					
						<rect x="551.3" y="451.5" transform="matrix(-0.7071 0.7071 -0.7071 -0.7071 1352.7238 362.669)" fill="#FFFFFF" stroke="#BBBCBE" stroke-miterlimit="10" width="100" height="20"/>
					
						<rect x="551.3" y="479.8" transform="matrix(-0.7071 0.7071 -0.7071 -0.7071 1372.7238 410.9533)" fill="#FFFFFF" stroke="#BBBCBE" stroke-miterlimit="10" width="100" height="20"/>
					
						<rect x="551.3" y="508.1" transform="matrix(-0.7071 0.7071 -0.7071 -0.7071 1392.7238 459.2376)" fill="#FFFFFF" stroke="#BBBCBE" stroke-miterlimit="10" width="100" height="20"/>
					
						<rect x="551.3" y="536.3" transform="matrix(-0.7071 0.7071 -0.7071 -0.7071 1412.7238 507.5218)" fill="#FFFFFF" stroke="#BBBCBE" stroke-miterlimit="10" width="100" height="20"/>
					
						<rect x="551.3" y="564.6" transform="matrix(-0.7071 0.7071 -0.7071 -0.7071 1432.7238 555.8062)" fill="#FFFFFF" stroke="#BBBCBE" stroke-miterlimit="10" width="100" height="20"/>
					
						<rect x="551.3" y="592.9" transform="matrix(-0.7071 0.7071 -0.7071 -0.7071 1452.7238 604.0904)" fill="#FFFFFF" stroke="#BBBCBE" stroke-miterlimit="10" width="100" height="20"/>
					
						<rect x="551.3" y="621.2" transform="matrix(-0.7071 0.7071 -0.7071 -0.7071 1472.7238 652.3747)" fill="#FFFFFF" stroke="#BBBCBE" stroke-miterlimit="10" width="100" height="20"/>
					
						<rect x="551.3" y="649.5" transform="matrix(-0.7071 0.7071 -0.7071 -0.7071 1492.7238 700.6589)" fill="#FFFFFF" stroke="#BBBCBE" stroke-miterlimit="10" width="100" height="20"/>
					
						<rect x="340.4" y="352.5" transform="matrix(0.7071 0.7071 -0.7071 0.7071 370.6649 -169.8684)" fill="#FFFFFF" stroke="#BBBCBE" stroke-miterlimit="10" width="100" height="20"/>
					
						<rect x="340.4" y="380.8" transform="matrix(0.7071 0.7071 -0.7071 0.7071 390.6649 -161.5842)" fill="#FFFFFF" stroke="#BBBCBE" stroke-miterlimit="10" width="100" height="20"/>
					
						<rect x="340.4" y="409.1" transform="matrix(0.7071 0.7071 -0.7071 0.7071 410.6649 -153.2999)" fill="#FFFFFF" stroke="#BBBCBE" stroke-miterlimit="10" width="100" height="20"/>
					
						<rect x="340.4" y="437.4" transform="matrix(0.7071 0.7071 -0.7071 0.7071 430.6649 -145.0156)" fill="#FFFFFF" stroke="#BBBCBE" stroke-miterlimit="10" width="100" height="20"/>
					
						<rect x="340.4" y="465.6" transform="matrix(0.7071 0.7071 -0.7071 0.7071 450.6649 -136.7314)" fill="#FFFFFF" stroke="#BBBCBE" stroke-miterlimit="10" width="100" height="20"/>
					
						<rect x="340.4" y="493.9" transform="matrix(0.7071 0.7071 -0.7071 0.7071 470.6649 -128.4471)" fill="#FFFFFF" stroke="#BBBCBE" stroke-miterlimit="10" width="100" height="20"/>
					
						<rect x="340.4" y="522.2" transform="matrix(0.7071 0.7071 -0.7071 0.7071 490.6649 -120.1628)" fill="#FFFFFF" stroke="#BBBCBE" stroke-miterlimit="10" width="100" height="20"/>
					
						<rect x="340.4" y="550.5" transform="matrix(0.7071 0.7071 -0.7071 0.7071 510.6649 -111.8785)" fill="#FFFFFF" stroke="#BBBCBE" stroke-miterlimit="10" width="100" height="20"/>
					
						<rect x="340.4" y="578.8" transform="matrix(0.7071 0.7071 -0.7071 0.7071 530.6649 -103.5943)" fill="#FFFFFF" stroke="#BBBCBE" stroke-miterlimit="10" width="100" height="20"/>
					
						<rect x="340.4" y="607.1" transform="matrix(0.7071 0.7071 -0.7071 0.7071 550.6649 -95.31)" fill="#FFFFFF" stroke="#BBBCBE" stroke-miterlimit="10" width="100" height="20"/>
					
						<rect x="340.4" y="635.3" transform="matrix(0.7071 0.7071 -0.7071 0.7071 570.6649 -87.0257)" fill="#FFFFFF" stroke="#BBBCBE" stroke-miterlimit="10" width="100" height="20"/>
					
						<rect x="410.3" y="366.6" transform="matrix(-0.7071 0.7071 -0.7071 -0.7071 1052.0217 317.5182)" fill="#FFFFFF" stroke="#BBBCBE" stroke-miterlimit="10" width="100" height="20"/>
					
						<rect x="410.3" y="394.9" transform="matrix(-0.7071 0.7071 -0.7071 -0.7071 1072.0217 365.8025)" fill="#FFFFFF" stroke="#BBBCBE" stroke-miterlimit="10" width="100" height="20"/>
					
						<rect x="410.3" y="423.2" transform="matrix(-0.7071 0.7071 -0.7071 -0.7071 1092.0217 414.0868)" fill="#FFFFFF" stroke="#BBBCBE" stroke-miterlimit="10" width="100" height="20"/>
					
						<rect x="410.3" y="451.5" transform="matrix(-0.7071 0.7071 -0.7071 -0.7071 1112.0217 462.3711)" fill="#FFFFFF" stroke="#BBBCBE" stroke-miterlimit="10" width="100" height="20"/>
					
						<rect x="410.3" y="479.8" transform="matrix(-0.7071 0.7071 -0.7071 -0.7071 1132.0217 510.6553)" fill="#FFFFFF" stroke="#BBBCBE" stroke-miterlimit="10" width="100" height="20"/>
					
						<rect x="410.3" y="508.1" transform="matrix(-0.7071 0.7071 -0.7071 -0.7071 1152.0217 558.9396)" fill="#FFFFFF" stroke="#BBBCBE" stroke-miterlimit="10" width="100" height="20"/>
					
						<rect x="410.3" y="536.3" transform="matrix(-0.7071 0.7071 -0.7071 -0.7071 1172.0217 607.2239)" fill="#FFFFFF" stroke="#BBBCBE" stroke-miterlimit="10" width="100" height="20"/>
					
						<rect x="410.3" y="564.6" transform="matrix(-0.7071 0.7071 -0.7071 -0.7071 1192.0217 655.5082)" fill="#FFFFFF" stroke="#BBBCBE" stroke-miterlimit="10" width="100" height="20"/>
					
						<rect x="410.3" y="592.9" transform="matrix(-0.7071 0.7071 -0.7071 -0.7071 1212.0217 703.7924)" fill="#FFFFFF" stroke="#BBBCBE" stroke-miterlimit="10" width="100" height="20"/>
					
						<rect x="410.3" y="621.2" transform="matrix(-0.7071 0.7071 -0.7071 -0.7071 1232.0217 752.0767)" fill="#FFFFFF" stroke="#BBBCBE" stroke-miterlimit="10" width="100" height="20"/>
					
						<rect x="410.3" y="649.5" transform="matrix(-0.7071 0.7071 -0.7071 -0.7071 1252.0217 800.361)" fill="#FFFFFF" stroke="#BBBCBE" stroke-miterlimit="10" width="100" height="20"/>
				</g>
			</g>
		</g>
		<g>
			<rect y="962.8" fill="#AF4831" width="1923.8" height="154.2"/>
			<rect y="962.8" fill="#AF4831" width="559" height="24.2"/>
			<rect y="1059.6" fill="#A3442F" width="497" height="24.2"/>
			<rect y="1035.4" fill="#AF4831" width="594" height="24.2"/>
			<rect y="1011.2" fill="#943E2B" width="670" height="24.2"/>
			<rect y="987" fill="#A3442F" width="439" height="24.2"/>
			
				<rect x="559.9" y="963" transform="matrix(1 -5.638020e-003 5.638020e-003 1 -5.4842 4.7598)" fill="#A3442F" width="563.2" height="24.2"/>
			<rect x="495.9" y="1059.6" fill="#943E2B" width="516.2" height="24.2"/>
			<rect x="595.6" y="1035.4" fill="#A3442F" width="674" height="24.2"/>
			<rect x="671.6" y="1011.2" fill="#AF4831" width="462.5" height="24.2"/>
			<rect x="438.6" y="987" fill="#943E2B" width="631" height="24.2"/>
			<rect x="1123" y="961.4" fill="#AF4831" width="524.1" height="25.6"/>
			<rect x="1069.6" y="987" fill="#A3442F" width="327" height="24.2"/>
			<rect x="1134.1" y="1011.2" fill="#943E2B" width="415.5" height="24.2"/>
			<rect x="1269.6" y="1035.4" fill="#943E2B" width="182.5" height="24.2"/>
			<rect x="1012.1" y="1059.6" fill="#A3442F" width="606.5" height="24.2"/>
			<polygon opacity="0.1" points="1147,961.4 1099.1,1083.8 497,1083.8 459.9,963.1 141.2,962.9 92,1083.8 0,1083.8 0,962.8 			"/>
			<rect x="1647.1" y="961.4" fill="#A3442F" width="276.8" height="25.6"/>
			<rect x="1396.6" y="987" fill="#943E2B" width="391.4" height="24.2"/>
			<rect x="1549.6" y="1011.2" fill="#A3442F" width="374.2" height="24.2"/>
			<rect x="1452.1" y="1035.4" fill="#943E2B" width="467.9" height="24.2"/>
			<rect x="1618.6" y="1059.6" fill="#AF4831" width="301.4" height="24.2"/>
			<polygon opacity="8.000000e-002" points="0,962.8 141.2,962.9 92,1083.8 0,1083.8 			"/>
			<polygon opacity="8.000000e-002" points="771,963.4 723,1083.8 497,1083.8 459.9,963.1 			"/>
			<polygon opacity="8.000000e-002" points="141.2,962.9 459.9,963.1 497,1083.8 92,1083.8 			"/>
			<polygon opacity="8.000000e-002" points="141.2,963 459.9,963.3 497,1083.9 92,1083.9 			"/>
		</g>
	</g>
	<path clip-path="url(#SVGID_2_)" fill="#E0723E" d="M429.5,962.8H170.6c-16.2,0-29.4-13.1-29.4-29.4V243.4
		c0-16.2,13.1-29.4,29.4-29.4h258.9c16.2,0,29.4,13.1,29.4,29.4v690.1C458.9,949.7,445.8,962.8,429.5,962.8z"/>
	<path clip-path="url(#SVGID_2_)" fill="#D56639" d="M458.9,249c0,0-22.6,104.7-135.9,156s-181.7,59.3-181.7,59.3V499h318.6
		L458.9,249z"/>
	<rect y="498.2" clip-path="url(#SVGID_2_)" fill="#E27C54" width="141.3" height="464.6"/>
	<rect x="141.3" y="499" clip-path="url(#SVGID_2_)" fill="#E0723E" width="318.6" height="463.8"/>
	<rect x="149" y="640.6" clip-path="url(#SVGID_2_)" fill="#51332A" width="303.1" height="16.5"/>
	<rect x="148.5" y="784.3" clip-path="url(#SVGID_2_)" fill="#51332A" width="303.1" height="16"/>
	<rect x="149" y="656.6" clip-path="url(#SVGID_2_)" fill="#7F8183" width="302.7" height="127.7"/>
	<rect x="148.8" y="799.4" clip-path="url(#SVGID_2_)" fill="#6D6E70" width="302.7" height="110.2"/>
	<rect x="149" y="510.2" clip-path="url(#SVGID_2_)" fill="#A6A8AA" width="303.1" height="130.4"/>
	<path clip-path="url(#SVGID_2_)" fill="#E0723E" d="M428,460"/>
	<polygon clip-path="url(#SVGID_2_)" fill="#943E2B" points="422.4,283 430,485.4 407.5,485.4 415,286.1 	"/>
	<g clip-path="url(#SVGID_2_)">
		<rect x="458.9" y="600.9" fill="#C24F34" width="347.8" height="361.9"/>
		<rect x="483.2" y="638" fill="#6B2C1F" width="299.2" height="69.3"/>
		<rect x="483.1" y="726.5" fill="#6B2C1F" width="299.2" height="200.5"/>
	</g>
	<path clip-path="url(#SVGID_2_)" fill="#273C27" d="M85.5,576c0-13.8,0-15,0-15H81h-4.5c0,0,0,1.3,0,15s-11,18-11,34.5
		s0,43.3,0,43.3H81h15.5c0,0,0-26.8,0-43.3S85.5,589.8,85.5,576z"/>
	<rect x="23.3" y="603.8" clip-path="url(#SVGID_2_)" fill="#4777B0" width="25.2" height="60.9"/>
	<g clip-path="url(#SVGID_2_)">
		<rect x="1744.1" y="600.9" fill="#C24F34" width="264.1" height="361.9"/>
		<rect x="1762.6" y="638" fill="#6B2C1F" width="227.1" height="69.3"/>
		<rect x="1762.5" y="726.5" fill="#6B2C1F" width="227.1" height="200.5"/>
		<rect x="1838.7" y="667.7" fill="#EBA897" width="74.8" height="10"/>
	</g>
	<g clip-path="url(#SVGID_2_)">
		<rect x="1140.8" y="600.9" fill="#C24F34" width="264.1" height="361.9"/>
		<rect x="1159.3" y="638" fill="#6B2C1F" width="227.1" height="69.3"/>
		<rect x="1159.2" y="726.5" fill="#6B2C1F" width="227.1" height="200.5"/>
		<rect x="1235.4" y="667.7" fill="#EBA897" width="74.8" height="10"/>
	</g>
	<rect x="65.5" y="612.2" clip-path="url(#SVGID_2_)" fill="#00905B" width="31" height="25"/>
	<polygon clip-path="url(#SVGID_2_)" points="459.9,963.1 141.2,962.9 141.3,962.8 459.8,962.8 	"/>
	<g clip-path="url(#SVGID_2_)">
		<rect x="69.9" y="738.9" fill="#EEEEEE" width="32.3" height="68.5"/>
		<polygon fill="#EEEEEE" points="69.9,738.9 86.2,722.6 102.3,738.9 		"/>
		<polyline fill="#939393" points="99,738.9 73.1,738.9 86.2,725.8 		"/>
		<rect x="84.7" y="717.6" fill="#EEEEEE" width="2.8" height="6.3"/>
		<rect x="74.3" y="744.5" fill="#A1D4F1" width="23" height="39.3"/>
		<polyline fill="#606161" points="94.2,738.9 78,738.9 86.1,730.7 		"/>
		<rect x="77.3" y="746.5" fill="#41AFE1" width="17.5" height="6.7"/>
	</g>
	<rect x="65.5" y="614.7" clip-path="url(#SVGID_2_)" fill="#A5CBBB" width="24.5" height="21.8"/>
	<rect x="458.9" y="600.9" clip-path="url(#SVGID_2_)" fill="#51332A" width="1462" height="20.9"/>
	<path opacity="0.5" clip-path="url(#SVGID_2_)" fill="#BA4C36" d="M-3,682.1h127.1c9.5,0,17.1-7.7,17.1-17.1V633H-3V682.1z"/>
	<path opacity="0.5" clip-path="url(#SVGID_2_)" fill="#BA4C36" d="M-3,825.2h127.1c9.5,0,17.1-7.7,17.1-17.1v-31.9H-3V825.2z"/>
	<polygon clip-path="url(#SVGID_2_)" fill="#306396" points="23.3,603.8 28.2,599 35.9,599 35.9,603.8 	"/>
	<polygon clip-path="url(#SVGID_2_)" fill="#306396" points="48.5,603.8 43.7,599 35.9,599 35.9,603.8 	"/>
	<circle clip-path="url(#SVGID_2_)" fill="#BA4C36" cx="35.9" cy="618.2" r="9.3"/>
	<path clip-path="url(#SVGID_2_)" fill="#FFFFFF" d="M42.9,613c0,0-0.6,2.8-6.6,6.3s-7.5,3.6-7.5,3.6l1.4,1.3c0,0,10.4-1.3,12.1-4
		s1.4-5.8,1.4-5.8L42.9,613z"/>
	<rect x="75.7" y="555.5" clip-path="url(#SVGID_2_)" fill="#582424" width="10.7" height="11"/>
	<path clip-path="url(#SVGID_2_)" fill="#51332A" d="M-1.9,682.1h127.1c9.5,0,17.1-7.7,17.1-17.1V653H-1.9V682.1z"/>
	<path clip-path="url(#SVGID_2_)" fill="#51332A" d="M-3,825.2h127.1c9.5,0,17.1-7.7,17.1-17.1v-11.9H-3V825.2z"/>
	<path clip-path="url(#SVGID_2_)" fill="#C24F34" d="M278.6,626.3c0,7.9-6.4,14.4-14.4,14.4s-14.4-6.4-14.4-14.4s6.4-13,14.4-13
		S278.6,618.4,278.6,626.3z"/>
	<path clip-path="url(#SVGID_2_)" fill="#1A784F" d="M255.2,606c0,0,2.9,1.5,4.9,4.2c2,2.7,1.6,3.4,1.6,3.4h5.2c0,0,0.9-2,2.7-2.9
		s2.8-0.9,2.8-0.9s-3.7-0.2-4.9,0.6c-1.2,0.8-1.6,1.4-1.6,1.4s1.8-2.2,0.7-5c-1.1-2.8-2.3-3.4-2.3-3.4s1.2,2.3,1.3,3.7
		c0.1,1.4-1.8,3.8-1.8,3.8s0-0.8-3-2.4S255.2,606,255.2,606z"/>
	<path clip-path="url(#SVGID_2_)" fill="#B04831" d="M273.1,617.1c0,0,2,3.9-5.3,9.4c-7.3,5.5-16.3,6.7-16.3,6.7s10.6,15.9,23.3,2.9
		c12.7-13-4-21.3-4-21.3L273.1,617.1z"/>
	<path clip-path="url(#SVGID_2_)" fill="#C24F34" d="M261.5,624.5c0,8.9-7.2,16.2-16.2,16.2c-8.9,0-16.2-7.2-16.2-16.2
		s7.2-14.6,16.2-14.6C254.2,609.9,261.5,615.6,261.5,624.5z"/>
	<path clip-path="url(#SVGID_2_)" fill="#1A784F" d="M235.1,601.6c0,0,3.3,1.7,5.5,4.7c2.2,3,1.8,3.8,1.8,3.8h5.8c0,0,1-2.2,3.1-3.2
		s3.1-1,3.1-1s-4.2-0.2-5.5,0.7c-1.3,0.9-1.8,1.6-1.8,1.6s2-2.5,0.8-5.6c-1.2-3.1-2.6-3.8-2.6-3.8s1.4,2.6,1.5,4.2s-2,4.3-2,4.3
		s0-0.9-3.4-2.7C238.1,602.6,235.1,601.6,235.1,601.6z"/>
	<path clip-path="url(#SVGID_2_)" fill="#B04831" d="M255.3,614.1c0,0,2.2,4.4-5.9,10.5c-8.2,6.2-18.3,7.5-18.3,7.5
		s11.9,17.8,26.2,3.2s-4.4-23.9-4.4-23.9L255.3,614.1z"/>
	<path clip-path="url(#SVGID_2_)" fill="#BD4D34" d="M292.1,625c0,8.5-6.9,15.3-15.3,15.3c-8.5,0-15.3-6.9-15.3-15.3
		c0-8.5,6.9-13.8,15.3-13.8C285.3,611.1,292.1,616.5,292.1,625z"/>
	<path clip-path="url(#SVGID_2_)" fill="#1A784F" d="M267.1,603.3c0,0,3.1,1.6,5.2,4.5c2.1,2.9,1.7,3.6,1.7,3.6h5.5c0,0,1-2.1,2.9-3
		c1.9-1,3-1,3-1s-3.9-0.2-5.2,0.7c-1.3,0.9-1.7,1.5-1.7,1.5s1.9-2.3,0.7-5.3c-1.2-3-2.5-3.6-2.5-3.6s1.3,2.4,1.4,3.9
		c0.1,1.5-1.9,4-1.9,4s0-0.9-3.2-2.6S267.1,603.3,267.1,603.3z"/>
	<path clip-path="url(#SVGID_2_)" fill="#B04831" d="M286.3,615.1c0,0,2.1,4.2-5.6,10c-7.8,5.9-17.4,7.1-17.4,7.1
		s11.3,16.9,24.9,3.1c13.6-13.9-4.2-22.7-4.2-22.7L286.3,615.1z"/>
	<path clip-path="url(#SVGID_2_)" fill="#1C6E4A" d="M155.8,723.9h134.8c0,0-3.7,60.9-66.1,60.9S155.8,723.9,155.8,723.9z"/>
	<path clip-path="url(#SVGID_2_)" fill="#BA4C36" d="M165.4,723.9h115.7c0,0-3.2,52.3-56.7,52.3S165.4,723.9,165.4,723.9z"/>
	<polygon clip-path="url(#SVGID_2_)" points="219.8,752.5 222.3,756.9 219.8,761.2 217.7,756.2 	"/>
	<g clip-path="url(#SVGID_2_)">
		<rect x="737.5" y="571.5" fill="#6D6D6D" width="82.5" height="4.8"/>
		<rect x="806.7" y="601.2" fill="#E27C54" width="334.1" height="361.9"/>
		<rect x="756.7" y="231.3" fill="#6D6E70" width="426.1" height="56"/>
		<rect x="843.7" y="-3.7" fill="#6D6E70" width="252.2" height="68"/>
		<polygon fill="#AF4831" points="1095.9,64.3 1182.8,231.3 756.7,231.3 843.7,64.3 		"/>
		<rect x="806.7" y="591.8" fill="#D15445" width="334.1" height="68.5"/>
		<path fill="#6B2C1F" d="M1125.2,691.8H822.3c-2.8,0-5-2.2-5-5v0c0-2.8,2.2-5,5-5h302.9c2.8,0,5,2.2,5,5v0
			C1130.2,689.6,1128,691.8,1125.2,691.8z"/>
		<rect x="832.8" y="721.3" fill="#6B2C1F" width="281.9" height="144"/>
		<rect x="868.1" y="731.3" fill="#2D2D2D" width="211.3" height="124"/>
		<g>
			<circle fill="#943E2B" cx="849" cy="625.6" r="15.4"/>
			<path fill="#6B2C1F" d="M855.1,625.6c0,5.8,0.3,11.7,0.9,17.5c-2.2,0.9-4.5,1.3-7,1.3c-2.5,0-4.8-0.5-7-1.3
				c0.6-5.8,0.9-11.6,0.9-17.5s-0.3-11.7-0.9-17.5c2.2-0.9,4.5-1.3,7-1.3c2.5,0,4.8,0.5,7,1.3C855.4,613.9,855.1,619.7,855.1,625.6z
				"/>
			<rect x="848.1" y="606.8" width="1.7" height="12.2"/>
		</g>
		<g>
			<circle fill="#943E2B" cx="914.5" cy="625.6" r="15.4"/>
			<path fill="#6B2C1F" d="M912.4,631.4c-5.5-1.9-11.1-3.6-16.8-4.9c-0.1-2.3,0.2-4.7,1-7c0.8-2.3,2-4.4,3.6-6.2
				c5.2,2.4,10.7,4.6,16.2,6.5c5.5,1.9,11.1,3.6,16.8,4.9c0.1,2.3-0.2,4.7-1,7c-0.8,2.3-2,4.4-3.6,6.2
				C923.4,635.5,918,633.3,912.4,631.4z"/>
			<rect x="925.6" y="623.7" transform="matrix(0.3286 -0.9445 0.9445 0.3286 27.2093 1297.8021)" width="1.7" height="12.2"/>
		</g>
		<g>
			<circle fill="#943E2B" cx="1033.1" cy="625.6" r="15.4"/>
			<path fill="#6B2C1F" d="M1039.2,625.6c0,5.8,0.3,11.7,0.9,17.5c-2.2,0.9-4.5,1.3-7,1.3c-2.5,0-4.8-0.5-7-1.3
				c0.6-5.8,0.9-11.6,0.9-17.5s-0.3-11.7-0.9-17.5c2.2-0.9,4.5-1.3,7-1.3c2.5,0,4.8,0.5,7,1.3
				C1039.5,613.9,1039.2,619.7,1039.2,625.6z"/>
			<rect x="1032.2" y="606.8" width="1.7" height="12.2"/>
		</g>
		<g>
			<circle fill="#943E2B" cx="1098.6" cy="625.6" r="15.4"/>
			<path fill="#6B2C1F" d="M1102.5,630.3c-4.5,3.7-8.8,7.7-12.9,11.8c-2.1-1.1-3.9-2.6-5.5-4.5c-1.6-1.9-2.7-4-3.4-6.3
				c4.8-3.2,9.5-6.7,14-10.5c4.5-3.7,8.8-7.7,12.9-11.8c2.1,1.1,3.9,2.6,5.5,4.5c1.6,1.9,2.7,4,3.4,6.3
				C1111.7,623.1,1107,626.6,1102.5,630.3z"/>
			<rect x="1107.5" y="611.4" transform="matrix(-0.6365 -0.7713 0.7713 -0.6365 1337.5427 1865.4542)" width="1.7" height="12.2"/>
		</g>
		<path fill="#BA4C36" d="M1103.2,78.4c0,0,2.6,12.9-54.6,69.5c-57.2,56.6-231.2,83.5-231.2,83.5h-60.6l87-167h252.2L1103.2,78.4z"
			/>
		<path fill="#49494A" d="M932.3,591.8H829.2c-6.5,0-11.8-5.3-11.8-11.8v-8.6h126.7v8.6C944.1,586.6,938.8,591.8,932.3,591.8z"/>
		<path fill="#6D6D6D" d="M1096.6,591.5h-72.3c-6.5,0-11.8-5.3-11.8-11.8v-77.6h95.8v77.6C1108.4,586.3,1103.1,591.5,1096.6,591.5z"
			/>
		<path fill="#C85033" d="M931.8,591.8c21.2,0,25.8-21.9,25.8-21.9s-6.2-1-17.8,6.6c-11.6,7.5-12.9,11.8-12.9,11.8s2.4-4,3.8-10.2
			c1.3-6.2,1.3-14,1.3-14s-10.2,7.8-13,11.6c-2.8,3.8-9.3,13.2-9.3,13.2l2.9-12.4c0,0-3.2,8.9-12.3,12.1c-9.2,3.2-13.2,2.9-13.2,2.9
			l6.7-8.5c0,0-8.1,8.2-22.1,8.5s-30.6-8.3-30.6-8.3l6.3,8.3c0,0-8.9,0.4-18.3-6.9s-5.1-10.9-16.4-16.1s-13.8-4.4-13.8-4.4
			s4.8,7.8,6.1,11.6s2,8.6,2,8.6l-5.2-1.4c0,0,2.9,2.5,7.9,5.7c5,3.2,9.7,3.2,9.7,3.2L931.8,591.8z"/>
		<path fill="#EEEEEE" d="M836.8,591.8c0,0-9.9-3.7-13.9-8.2s-2.8-6.5-6.2-8.8c-3.3-2.3-8.3-2.8-8.3-2.8s3.8,4.5,4.2,8.2
			c0.3,3.7,2,5.7,6.8,8.2s7.4,3.4,7.4,3.4L836.8,591.8z"/>
		<path fill="#EEEEEE" d="M913.2,591.9c0,0,3.5-7.5,6.6-9.3c3.1-1.8,4.7-4.2,4.7-4.2s0.6,4.7,0.6,7.9s-1.9,4.3-1.9,4.3
			s6.9-3.8,12-5.5c5.1-1.7,12.2-6.3,12.2-6.3s-2.5,6.2-9.4,9.3c-6.9,3.1-10.9,3.8-10.9,3.8H913.2z"/>
		<rect x="1000.7" y="502.2" fill="#49494A" width="11.8" height="3.2"/>
		<circle fill="#6D6D6D" cx="1000.7" cy="506.8" r="4.6"/>
		<rect x="1108.3" y="502.2" fill="#49494A" width="11.8" height="3.2"/>
		<circle fill="#6D6D6D" cx="1120.1" cy="506.8" r="4.6"/>
		<rect x="868.1" y="832.3" fill="#43211E" width="211.3" height="23"/>
		<path fill="#E2E2E2" d="M933.2,783.2c0,0-11.8-4-13.6-6.2c-1.8-2.2-3-3.3-5.2,0s-2.7,5,2.2,5.8c4.8,0.8,13,7.1,13,7.1L933.2,783.2
			z"/>
		<path fill="#E2E2E2" d="M957.2,775.7c0,0-11.8-4-13.6-6.2c-1.8-2.2-3-3.3-5.2,0c-2.2,3.3-2.7,5,2.2,5.8c4.8,0.8,13,7.1,13,7.1
			L957.2,775.7z"/>
		<path fill="#7F4B2C" d="M1006.1,831.3c7.8,0,24.4,0,28.8,0s3.1-8.3-9.1-15.2c-12.2-6.9-17.6-15.9-17.6-15.9s1.2,8.3,3.8,13.2
			s4,5.8,4,5.8s-3.5-1.5-13.6-2c-10.1-0.5-21.6,14-14.4,14S1006.1,831.3,1006.1,831.3z"/>
		<path fill="#7F4B2C" d="M1002.2,805.1c12.3-13-8.9-24.1-22.7-27.9c-13.7-3.8-28.3-3.4-29-0.5c-0.7,2.9,11.3,17.6,22,24.7
			C983.1,808.4,992.1,815.8,1002.2,805.1z"/>
		<path fill="#8F5C34" d="M1030.5,832.3c-4.3-37.5-14-51.2-52.2-49.4c-38.2,1.8-50.1,16.6-49,31.7c1.1,15.1,24.1,17.7,24.1,17.7
			H1030.5z"/>
		<path fill="#7F4B2C" d="M979.3,813.7c12.3-13-8.9-24.1-22.7-27.9c-13.7-3.8-28.3-3.4-29-0.5c-0.7,2.9,11.3,17.6,22,24.7
			C960.3,817.1,969.2,824.4,979.3,813.7z"/>
		<path fill="#7F4B2C" d="M995.1,832.3c7.8,0,24.4,0,28.8,0s3.1-8.3-9.1-15.2c-12.2-6.9-17.6-15.9-17.6-15.9s1.2,8.3,3.8,13.2
			c2.6,4.9,4,5.8,4,5.8s-3.5-1.5-13.6-2c-10.1-0.5-21.6,14-14.4,14S995.1,832.3,995.1,832.3z"/>
		<polygon opacity="0.2" fill="#FFFFFF" points="1079.4,747.7 970.7,855.3 1079.4,855.3 		"/>
		<polygon opacity="0.2" fill="#FFFFFF" points="1065.7,731.3 947,855.3 930.7,855.3 1047.7,731.3 		"/>
		<linearGradient id="SVGID_5_" gradientUnits="userSpaceOnUse" x1="915.0175" y1="609.6102" x2="939.1606" y2="276.9271">
			<stop  offset="0" style="stop-color:#020202;stop-opacity:0"/>
			<stop  offset="1" style="stop-color:#000000;stop-opacity:0.3"/>
		</linearGradient>
		<path fill="url(#SVGID_5_)" d="M897.7,586.9l25.7-21.4l-18-28.4l22.4-20.8c0,0-1.9-14.3,0-17.8c1.9-3.5,1.9-3.5,1.9-3.5l11.7-19.6
			l7.1-11.6L927.8,442l37.9-11.5c0,0,5.8-13.9,3.4-17.3c-2.4-3.5-7.4-13.6-7.4-13.6l15-11.8l10.4-8.1v-16.2v-5.8l10.5-16.2
			L987.2,315l28.9-5.8l-18.4-15l0.1-6.9H859.1l19.6,39.2l21,15l-13.1,18.5v13.9l13.1,6.9l-9.7,13.9l-3.4,10.4l-6.9,18.5l10.3,11.3
			l-3.4,13l-7.9,8.1l-1,5.8l12.3,15l-8.3,21.9l-12.5,5.8V517l7.5,8.1l9.9,15.5L871.7,554v17.3l4,8.1l-6.5,17.3h17.4L897.7,586.9z"/>
		<linearGradient id="SVGID_6_" gradientUnits="userSpaceOnUse" x1="878.5217" y1="497.9849" x2="903.8019" y2="373.3076">
			<stop  offset="0" style="stop-color:#020202;stop-opacity:0"/>
			<stop  offset="1" style="stop-color:#000000;stop-opacity:0.3"/>
		</linearGradient>
		<path fill="url(#SVGID_6_)" d="M909.2,371l24,28.9l-29.5,17.3l14.8,41.6l-14.8,25.4l-10.5,5.2l-15,18.5c0,0-4,5.8-4,0
			s4-27.1,4-27.1s-6.5-23.1-8-24.2c-1.5-1.2-5.9-15.7-5.9-15.7l6.4-24.7l-6.4-20.2l10.9-13.9l11.4-14.4l12.2-18.5L909.2,371z"/>
		<linearGradient id="SVGID_7_" gradientUnits="userSpaceOnUse" x1="920.549" y1="463.4838" x2="988.8082" y2="283.1087">
			<stop  offset="0" style="stop-color:#020202;stop-opacity:0"/>
			<stop  offset="1" style="stop-color:#000000;stop-opacity:0.3"/>
		</linearGradient>
		<path fill="url(#SVGID_7_)" d="M927.7,481.8l-19.5-52.1l5-39.1l20.1-5.8v-19.6l4.3-6.3l6.5-4.6c0,0-0.2-13.3,0-15
			c0.2-1.7,7.2-5.8,7.2-5.8l12-7.5l6.5-6.3v-9.2l6.5-23.1h41.4l-16.9,25v19.4l-4.6,24.2l-11.4,10.4l-15,10.4l-12.2,2.3l8.2,17.3
			l-18.5,7.5l-3.2-1.2v14.4l-6.5,0.6l-10.4,6.9l6,15.7l-9.5,9.2L927.7,481.8z"/>
		<rect x="737.2" y="570.7" fill="#49494A" width="44.5" height="6.5"/>
	</g>
	<polygon clip-path="url(#SVGID_2_)" points="194.8,730.6 191,734 186.3,732.3 190.8,729.3 	"/>
	<polygon clip-path="url(#SVGID_2_)" points="201.4,740.9 199.1,745.5 194,745.6 197.2,741.1 	"/>
	<polygon clip-path="url(#SVGID_2_)" points="210.7,747.9 210,752.9 205.3,754.7 206.8,749.5 	"/>
	<polygon clip-path="url(#SVGID_2_)" points="230.2,751.3 234.1,754.5 233.2,759.5 229.5,755.5 	"/>
	<polygon clip-path="url(#SVGID_2_)" points="243,744.3 247.7,746.3 248.2,751.3 243.5,748.5 	"/>
	<polygon clip-path="url(#SVGID_2_)" points="250.7,733 255.8,732.8 258.4,737.1 253,736.6 	"/>
	<path clip-path="url(#SVGID_2_)" fill="#D5C6B9" d="M407.8,740.4c0,6.2-5,11.3-11.3,11.3s-11.3-5-11.3-11.3s5-17.5,11.3-17.5
		S407.8,734.2,407.8,740.4z"/>
	<path clip-path="url(#SVGID_2_)" fill="#EFDDCB" d="M391.8,744.1c0,6.2-5,11.3-11.3,11.3s-11.3-5-11.3-11.3s5-17.5,11.3-17.5
		S391.8,737.9,391.8,744.1z"/>
	<path clip-path="url(#SVGID_2_)" fill="#EFDDCB" d="M417.3,748c-1.4,6.1-7.4,9.8-13.5,8.5c-6.1-1.4-9.8-7.4-8.5-13.5
		c1.4-6.1,8.8-15.9,14.9-14.6C416.3,729.8,418.7,742,417.3,748z"/>
	<path clip-path="url(#SVGID_2_)" fill="#EFDDCB" d="M370.9,740.6c2.5,5.7,0,12.3-5.7,14.9s-12.3,0-14.9-5.7s-2.5-18,3.2-20.6
		C359.2,726.6,368.4,734.9,370.9,740.6z"/>
	<path clip-path="url(#SVGID_2_)" fill="#FDE8D2" d="M382.6,742.6c1.6,6-2,12.2-8,13.8c-6,1.6-12.2-2-13.8-8
		c-1.6-6,0.4-18.2,6.4-19.8C373.2,727,381,736.6,382.6,742.6z"/>
	<path clip-path="url(#SVGID_2_)" fill="#CFCFCE" d="M380.3,783.8h5.5c18.2,0,32.9-14.7,32.9-32.9v-6.6h-71.3v6.6
		C347.3,769.1,362.1,783.8,380.3,783.8z"/>
	<g clip-path="url(#SVGID_2_)">
		<rect x="1381.3" y="55.5" fill="#AF4831" width="385.9" height="406"/>
		<linearGradient id="SVGID_8_" gradientUnits="userSpaceOnUse" x1="1574.25" y1="80.0089" x2="1574.25" y2="419.797">
			<stop  offset="0" style="stop-color:#F4BC89"/>
			<stop  offset="1" style="stop-color:#E78B55"/>
		</linearGradient>
		<rect x="1404.4" y="77.5" fill="url(#SVGID_8_)" width="339.8" height="361.9"/>
		<rect x="1404.4" y="251.5" fill="#E0723E" width="339.7" height="14.1"/>
		<rect x="1565.3" y="77.5" fill="#E0723E" width="17.9" height="361.9"/>
		<circle fill="#FEF5DE" cx="1659.8" cy="421.2" r="46.5"/>
		<rect x="1336.3" y="437.5" fill="#943E2B" width="475.9" height="48"/>
		<rect x="1404.4" y="600.4" fill="#E27C54" width="339.8" height="361.9"/>
		<polygon fill="#6D6E70" points="1496.5,437.5 1463.2,437.5 1459,387.2 1500.7,387.2 		"/>
		<path fill="#1B7950" d="M1462.2,380.3c0,0-4.5-10-5.2-18.8s1.9-14,1.9-14s7.4,6.7,8.1,12.7s1.7,16.3,1.7,16.3s0.3-15.3,0.8-20
			s4.5-11.8,4.5-11.8s4,3.8,4.3,13.2c0.3,9.3,0,18.7,0,18.7s1.8-14,4.2-19.2c2.3-5.2,8.3-9.8,8.3-9.8s3.3,6.2,2,15.8
			c-1.3,9.7-5.7,15.3-5.7,15.3s8.3-16.3,12.5-19.8c4.2-3.5,7.3-5.2,7.3-5.2s0.8,3.3-1.3,10.8c-2.1,7.5-8.3,18.5-8.3,18.5l-5.2,3.5
			h-28L1462.2,380.3z"/>
		<path fill="#06925B" d="M1462.6,387.2c0,0-4.2-1.8-10-9.5c-5.8-7.7-5.8-19.2-5.8-19.2s10.2,4.5,16.8,13s9.7,15.7,9.7,15.7
			s-2.2-8.7-3.3-15.5c-1.2-6.8,1.5-16.3,1.5-16.3s7.5,5.8,10,15.9s2.2,15.9,2.2,15.9s-0.8-8,1.5-15.9s11.2-15.9,11.2-15.9
			s1.7,11.7,0,18.5c-1.7,6.8-4,12.7-4,12.7s4.2-7.8,9.7-13s12-7.8,12-7.8s-2.8,7.7-6.2,13.2c-3.3,5.5-8.5,8.3-8.5,8.3H1462.6z"/>
		<path fill="#A6A8AA" d="M1699.4,712.2h-250.3c-15.9,0-28.8-12.9-28.8-28.8v-92.7h307.9v92.7
			C1728.2,699.3,1715.3,712.2,1699.4,712.2z"/>
		<path fill="none" stroke="#6D6E70" stroke-width="10" stroke-miterlimit="10" d="M1605.7,590.7v-49.2c0-10.8-8.7-19.5-19.5-19.5
			h-7.5c-10.8,0-19.5,8.7-19.5,19.5v4.5"/>
		<path fill="#80B9E0" d="M1563.3,546c0,0-1.1,10.5-1.6,25.3s-0.4,19.4-0.4,19.4h-5c0,0,0.3-16.5,0-27.7s-1.5-17-1.5-17H1563.3z"/>
		<path fill="#AE4836" d="M1673,543h-12.5c-6.5,0-11.8,5.3-11.8,11.8v35.9h36v-35.9C1684.7,548.3,1679.5,543,1673,543z"/>
		<path fill="#AE4836" d="M1676.7,532.8h-20v-4.2c0-5.5,4.5-10,10-10l0,0c5.5,0,10,4.5,10,10V532.8z"/>
		<rect x="1664.5" y="532.6" fill="#6D6E70" width="4.5" height="10.4"/>
		<polyline fill="none" stroke="#AE4836" stroke-width="4" stroke-miterlimit="10" points="1674.7,527.7 1691.7,527.7 1697,533 		
			"/>
		<rect x="1420.3" y="725.5" fill="#6B2C1F" width="150.9" height="200.5"/>
		<rect x="1577.3" y="725.5" fill="#6B2C1F" width="150.9" height="200.5"/>
	</g>
	<polygon clip-path="url(#SVGID_2_)" fill="#202121" points="265,909.6 192.7,909.6 189,879.7 268.7,879.7 	"/>
	<polygon clip-path="url(#SVGID_2_)" fill="#2D2D2D" points="396.8,909.6 324.5,909.6 320.8,879.7 400.5,879.7 	"/>
	<polygon clip-path="url(#SVGID_2_)" fill="#383838" points="396.2,879.7 323.8,879.7 320.2,849.8 399.8,849.8 	"/>
	<rect x="198" y="337" clip-path="url(#SVGID_2_)" fill="#E6E6E7" width="75.3" height="58.7"/>
	<rect x="300.5" y="324" clip-path="url(#SVGID_2_)" fill="#E6E6E7" width="68.1" height="90.3"/>
	<rect x="306.8" y="331" clip-path="url(#SVGID_2_)" width="3.2" height="3"/>
	<path clip-path="url(#SVGID_2_)" fill="#E6E6E7" stroke="#000000" stroke-miterlimit="10" d="M315.5,332.5l6-1.5l2.3,3l3.2-2.2
		c0,0,3.2,0,3.8,0c0.7,0,2.5,0.7,2.5,0.7h3.7c0,0,1.2-0.3,1.5,0s-0.7-0.8,0.3,0.3c1,1.2,4.5-1.8,4.5-1.8l4.5,1.5l2.3,1.5
		c0,0,3.8-1.5,4.7-1.5c0.8,0,2.7-0.8,2.7-0.8s2.7-0.5,3.3,0c0.7,0.5,1.8,0.8,1.8,0.8"/>
	<path clip-path="url(#SVGID_2_)" fill="#E6E6E7" stroke="#000000" stroke-miterlimit="10" d="M315.5,340.5h2.2h4h1.8h1.5l5.5-1.7
		c0,0-2-0.2,0,1.7s6.2,2.5,6.2,2.5l5-1.3l4.7-0.8h5.8c1.3,0.6,3,0.8,3,0.8l2.5-0.8c0,0,1-0.3,1.2,0c0.2,0.3,0.2,0.3,0.2,0.3
		s1,1.2,1.8,1c0.8-0.2,3.7-1.3,3.7-1.3"/>
	<rect x="306" y="354.3" clip-path="url(#SVGID_2_)" width="3.2" height="3"/>
	<path clip-path="url(#SVGID_2_)" fill="#E6E6E7" stroke="#000000" stroke-miterlimit="10" d="M314.7,355.8l6-1.5l2.3,3l3.2-2.2
		c0,0,3.2,0,3.8,0s2.5,0.7,2.5,0.7h3.7c0,0,1.2-0.3,1.5,0c0.3,0.3-0.7-0.8,0.3,0.3c1,1.2,4.5-1.8,4.5-1.8l4.5,1.5l2.3,1.5
		c0,0,3.8-1.5,4.7-1.5s2.7-0.8,2.7-0.8s2.7-0.5,3.3,0s1.8,0.8,1.8,0.8"/>
	<path clip-path="url(#SVGID_2_)" fill="#E6E6E7" stroke="#000000" stroke-miterlimit="10" d="M314.7,363.8h2.2h4h1.8h1.5l5.5-1.7
		c0,0-2-0.2,0,1.7c2,1.8,6.2,2.5,6.2,2.5l5-1.3l4.7-0.8h5.8c1.3,0.6,3,0.8,3,0.8l2.5-0.8c0,0,1-0.3,1.2,0c0.2,0.3,0.2,0.3,0.2,0.3
		s1,1.2,1.8,1s3.7-1.3,3.7-1.3"/>
	<rect x="306.2" y="378.2" clip-path="url(#SVGID_2_)" width="3.2" height="3"/>
	<path clip-path="url(#SVGID_2_)" fill="#E6E6E7" stroke="#000000" stroke-miterlimit="10" d="M314.8,379.7l6-1.5l2.3,3l3.2-2.2
		c0,0,3.2,0,3.8,0c0.7,0,2.5,0.7,2.5,0.7h3.7c0,0,1.2-0.3,1.5,0c0.3,0.3-0.7-0.8,0.3,0.3s4.5-1.8,4.5-1.8l4.5,1.5l2.3,1.5
		c0,0,3.8-1.5,4.7-1.5c0.8,0,2.7-0.8,2.7-0.8s2.7-0.5,3.3,0c0.7,0.5,1.8,0.8,1.8,0.8"/>
	<path clip-path="url(#SVGID_2_)" fill="#E6E6E7" stroke="#000000" stroke-miterlimit="10" d="M314.8,387.7h2.2h4h1.8h1.5l5.5-1.7
		c0,0-2-0.2,0,1.7c2,1.8,6.2,2.5,6.2,2.5l5-1.3l4.7-0.8h5.8c1.3,0.6,3,0.8,3,0.8l2.5-0.8c0,0,1-0.3,1.2,0c0.2,0.3,0.2,0.3,0.2,0.3
		s1,1.2,1.8,1c0.8-0.2,3.7-1.3,3.7-1.3"/>
	<rect x="203.1" y="341" clip-path="url(#SVGID_2_)" fill="#94CFE7" width="65.1" height="50.7"/>
	<path clip-path="url(#SVGID_2_)" fill="#5D381F" d="M203.1,365.2c0,0,7-10.8,11.5-10.8s11.2,7.8,11.2,7.8s3.2-10.7,9-12
		c5.8-1.3,16.7,16.2,16.7,16.2s5-8.2,8.7-9c3.7-0.8,8,5.8,8,5.8v28.5h-65.1V365.2z"/>
	<path clip-path="url(#SVGID_2_)" fill="#009CCC" d="M245.2,391.7c0-11.5-5.1-20.8-11.3-20.8c-6.3,0-11.3,9.3-11.3,20.8"/>
	<circle clip-path="url(#SVGID_2_)" fill="#FAD1A5" cx="233.8" cy="365.3" r="7.7"/>
	<rect x="505.5" y="402.1" clip-path="url(#SVGID_2_)" fill="#2D2D2D" width="115.1" height="13.4"/>
	<path clip-path="url(#SVGID_2_)" fill="#00955D" d="M259.3,391.7c0-8.7-3.8-15.7-8.6-15.7s-8.6,7-8.6,15.7"/>
	<circle clip-path="url(#SVGID_2_)" fill="#FAD1A5" cx="250.8" cy="371.8" r="5.8"/>
	<path clip-path="url(#SVGID_2_)" fill="#D25986" d="M228.1,391.7c0-10.7-4.7-19.3-10.5-19.3s-10.5,8.6-10.5,19.3"/>
	<circle clip-path="url(#SVGID_2_)" fill="#FAD1A5" cx="217.6" cy="367.3" r="7.1"/>
	<path clip-path="url(#SVGID_2_)" fill="#929293" d="M604.9,461.9c-0.2,2.8-0.2,4.4-0.2,4.4s-12.4-7.2-12.4-82.4h2.4
		c0,0,0.7,51.3,4.7,63.9C603.3,460.2,604.9,461.9,604.9,461.9z"/>
	<path clip-path="url(#SVGID_2_)" fill="#A6A8AA" d="M607.6,383.8c0,25.7-2,65-2.7,78c0,0-1.6-1.7-5.5-14.2
		c-4-12.5-4.7-63.9-4.7-63.9H607.6z"/>
	<path clip-path="url(#SVGID_2_)" fill="#6B2C1F" d="M607.6,383.8v-41.2c0-1.7-1.2-3.1-2.7-3.1H600c-2,0-3.3,2.5-2.4,4.6l0,0
		c1.5,3.5,2.3,7.4,2.3,11.3v29.4L607.6,383.8z"/>
	<path clip-path="url(#SVGID_2_)" fill="#A6A8AA" d="M566.9,384.7c0,48.1,7.9,52.7,7.9,52.7s1.9-32.8,1.9-52.7H566.9z"/>
	<path clip-path="url(#SVGID_2_)" fill="#6B2C1F" d="M576.7,384.7v-26.3c0-1.1-0.8-2-1.7-2h-3.1c-1.3,0-2.1,1.6-1.5,2.9v0
		c1,2.2,1.5,4.7,1.5,7.2v18.8L576.7,384.7z"/>
	<path clip-path="url(#SVGID_2_)" fill="#6B2C1F" d="M550.1,387.1V346c0-1.7-1.2-3.1-2.7-3.1h-4.9c-2,0-3.3,2.5-2.4,4.6l0,0
		c1.5,3.5,2.3,7.4,2.3,11.3v29.4L550.1,387.1z"/>
	<polygon clip-path="url(#SVGID_2_)" fill="#A6A8AA" points="522.4,380.8 550.1,382.1 550.1,441.7 524.5,441.7 	"/>
	<polygon clip-path="url(#SVGID_2_)" fill="#929293" points="522.4,380.8 526.1,380.8 528.5,441.7 524.5,441.7 	"/>
	<ellipse clip-path="url(#SVGID_2_)" fill="#20975D" cx="573.7" cy="558.5" rx="42.8" ry="28.5"/>
	<path clip-path="url(#SVGID_2_)" fill="#1A8556" d="M560.3,587.1c0,0-1.5-17.6,10.3-23.7s13.1-8.8,17.5-9.4s2.8-2.3,5.5-4.5
		s5-2.4,7.1-3.9s4.8-3.9,5.6-4.6s1.5-1.4,4.5-1.4s3.5,0.3,6,2.3s4.2,3.5,5.7,6c1.5,2.5,5.3,1.4-1.7,16.7c-7,15.3-11.6,16.9-20,19.7
		s-40.6,3.4-40.6,3.4"/>
	<path clip-path="url(#SVGID_2_)" fill="#32724A" d="M583.4,573.3c0,0-6.6-14.6-8.9-16.6s-7-3.5-11-5.8s-7.9-2.3-8.4-3s-0.3-1-2-3
		s-2.8-1.3-4.1-2.6s-1.9-2.9-2.6-3.8s1.5-1-2.9-2.4s-5.1-1.8-8.1-2.4s-2.6-0.4-4.8,1.6s-1.1,3.5-4.4,6.9s-9.9,22.6,1.6,31
		s32.3,15.2,32.3,15.2l19.1-4.5l5.2-10.8H583.4z"/>
	<rect x="595.4" y="667.7" clip-path="url(#SVGID_2_)" fill="#EBA897" width="74.8" height="10"/>
	<rect x="509.8" y="584.1" clip-path="url(#SVGID_2_)" fill="#943E2B" width="149.2" height="16.5"/>
</g>
</svg>
